<svg width="31" height="30" viewBox="0 0 31 30" fill="none" xmlns="http://www.w3.org/2000/svg">
<path d="M8.09487 11.8561C7.59982 11.8561 7.20013 12.2559 7.20013 12.7466C7.20013 13.2373 7.59982 13.6371 8.09487 13.6371C8.58991 13.6371 8.9896 13.2373 8.9896 12.7466C8.9896 12.2559 8.58788 11.8561 8.09487 11.8561Z" fill="#B0B0B0"/>
<path d="M16.9387 11.7632C16.4071 11.7632 15.975 12.1933 15.975 12.7224C15.975 13.2514 16.4071 13.6815 16.9387 13.6815C17.4703 13.6815 17.9024 13.2514 17.9024 12.7224C17.9024 12.1933 17.4703 11.7632 16.9387 11.7632Z" fill="#B0B0B0"/>
<path d="M24.9446 3H5.89961C3.97826 3 2.42212 4.55073 2.42212 6.46088V17.7097C2.42212 19.6219 3.97826 21.1706 5.89961 21.1706H12.6253L14.9139 26.5356C14.9139 26.5356 15.0721 27 15.4536 27C15.835 27 15.9932 26.5356 15.9932 26.5356L18.2818 21.1706H24.9467C26.868 21.1706 28.4242 19.6219 28.4242 17.7097V6.46088C28.4242 4.54871 26.866 3 24.9467 3H24.9446ZM10.5904 12.9425C10.5802 14.998 8.44381 15.0565 8.44381 15.0565C7.61806 15.0565 7.15142 14.5114 7.15142 14.5114V14.8829H5.59528V8.49823C5.59528 8.49823 5.58919 8.49621 5.59528 8.49419V8.49823C5.69266 8.51439 7.15142 8.49419 7.15142 8.49419V10.9374C7.51662 10.3175 8.57569 10.3276 8.57569 10.3276C10.8785 10.5416 10.5904 12.9445 10.5904 12.9445V12.9425ZM13.3293 10.5235V14.895H11.8057V10.5659C11.8057 9.97627 11.0712 9.81272 11.0712 9.81272V8.28622C13.5038 8.38516 13.3273 10.5215 13.3273 10.5215L13.3293 10.5235ZM16.9387 15.0606C15.5286 15.0606 14.3864 14.0126 14.3864 12.7224C14.3864 11.4321 15.5286 10.3841 16.9387 10.3841C18.3488 10.3841 19.491 11.4321 19.491 12.7224C19.491 14.0126 18.3488 15.0606 16.9387 15.0606ZM25.2814 15.0606C25.2814 15.0606 25.3037 17.2817 23.0355 17.2817H22.3456V15.842H22.7616C22.7616 15.842 23.7151 15.9288 23.703 14.469C23.703 14.469 23.5163 15.0606 22.1793 15.0606C22.1793 15.0606 20.2843 14.9253 20.2843 13.0838V12.3852C20.2843 12.3852 20.3289 10.477 22.4085 10.3236C22.4085 10.3236 23.2302 10.2367 23.7334 10.9132V10.4447H25.2774V15.0586L25.2814 15.0606Z" fill="#B0B0B0"/>
<path d="M22.861 11.7855C22.3416 11.7855 21.9196 12.2055 21.9196 12.7224C21.9196 13.2393 22.3416 13.6593 22.861 13.6593C23.3803 13.6593 23.8023 13.2393 23.8023 12.7224C23.8023 12.2055 23.3803 11.7855 22.861 11.7855Z" fill="#B0B0B0"/>
</svg>
