<svg width="25" height="25" viewBox="0 0 25 25" fill="none" xmlns="http://www.w3.org/2000/svg">
<g clip-path="url(#clip0_1088_30560)">
<path d="M8 12.5C8 12.8978 7.84196 13.2794 7.56066 13.5607C7.27936 13.842 6.89782 14 6.5 14C6.10218 14 5.72064 13.842 5.43934 13.5607C5.15804 13.2794 5 12.8978 5 12.5C5 12.1022 5.15804 11.7206 5.43934 11.4393C5.72064 11.158 6.10218 11 6.5 11C6.89782 11 7.27936 11.158 7.56066 11.4393C7.84196 11.7206 8 12.1022 8 12.5ZM14 12.5C14 12.8978 13.842 13.2794 13.5607 13.5607C13.2794 13.842 12.8978 14 12.5 14C12.1022 14 11.7206 13.842 11.4393 13.5607C11.158 13.2794 11 12.8978 11 12.5C11 12.1022 11.158 11.7206 11.4393 11.4393C11.7206 11.158 12.1022 11 12.5 11C12.8978 11 13.2794 11.158 13.5607 11.4393C13.842 11.7206 14 12.1022 14 12.5ZM18.5 14C18.8978 14 19.2794 13.842 19.5607 13.5607C19.842 13.2794 20 12.8978 20 12.5C20 12.1022 19.842 11.7206 19.5607 11.4393C19.2794 11.158 18.8978 11 18.5 11C18.1022 11 17.7206 11.158 17.4393 11.4393C17.158 11.7206 17 12.1022 17 12.5C17 12.8978 17.158 13.2794 17.4393 13.5607C17.7206 13.842 18.1022 14 18.5 14Z" fill="#252525"/>
<path d="M3.7475 24.2045L3.7775 24.1985C6.5225 23.654 8.1995 22.9355 8.9795 22.541C10.1277 22.8483 11.3114 23.0026 12.5 23C19.127 23 24.5 18.299 24.5 12.5C24.5 6.701 19.127 2 12.5 2C5.873 2 0.5 6.701 0.5 12.5C0.5 15.14 1.6145 17.555 3.455 19.4C3.32672 20.5852 3.06299 21.7518 2.669 22.877L2.6645 22.8935C2.55241 23.2157 2.43035 23.5344 2.2985 23.849C2.18 24.128 2.4095 24.44 2.708 24.392C3.05548 24.3351 3.40202 24.2725 3.7475 24.2045ZM4.9475 19.5425C4.96851 19.3229 4.94082 19.1014 4.86641 18.8937C4.792 18.686 4.6727 18.4973 4.517 18.341C2.927 16.745 2 14.702 2 12.5C2 7.712 6.506 3.5 12.5 3.5C18.494 3.5 23 7.712 23 12.5C23 17.288 18.494 21.5 12.5 21.5C11.4426 21.5026 10.3895 21.3654 9.368 21.092C9.01097 20.9963 8.63118 21.0359 8.3015 21.203C7.721 21.497 6.4415 22.058 4.3505 22.5425C4.64196 21.5631 4.84182 20.5588 4.9475 19.5425Z" fill="#252525"/>
</g>
<defs>
<clipPath id="clip0_1088_30560">
<rect width="24" height="24" fill="white" transform="translate(0.5 0.5)"/>
</clipPath>
</defs>
</svg>
