<svg width="25" height="25" viewBox="0 0 25 25" fill="none" xmlns="http://www.w3.org/2000/svg">
<path d="M17.5 12.305C17.5 11.959 17.5 11.786 17.552 11.632C17.703 11.184 18.102 11.011 18.502 10.829C18.95 10.624 19.174 10.522 19.397 10.504C19.649 10.484 19.902 10.538 20.118 10.659C20.404 10.819 20.604 11.125 20.808 11.373C21.751 12.519 22.223 13.092 22.395 13.723C22.535 14.233 22.535 14.767 22.395 15.276C22.144 16.198 21.349 16.97 20.76 17.686C20.459 18.051 20.308 18.234 20.118 18.341C19.8983 18.4628 19.6474 18.5168 19.397 18.496C19.174 18.478 18.95 18.376 18.501 18.171C18.101 17.989 17.703 17.816 17.552 17.368C17.5 17.214 17.5 17.041 17.5 16.696V12.305ZM7.50003 12.305C7.50003 11.869 7.48803 11.478 7.13603 11.172C7.00803 11.061 6.83803 10.984 6.49903 10.829C6.05003 10.625 5.82603 10.522 5.60303 10.504C4.93603 10.45 4.57703 10.906 4.19303 11.374C3.24903 12.519 2.77703 13.092 2.60403 13.724C2.46483 14.2323 2.46483 14.7687 2.60403 15.277C2.85603 16.198 3.65203 16.971 4.24003 17.686C4.61103 18.136 4.96603 18.547 5.60303 18.496C5.82603 18.478 6.05003 18.376 6.49903 18.171C6.83903 18.017 7.00803 17.939 7.13603 17.828C7.48803 17.522 7.50003 17.131 7.50003 16.696V12.305Z" stroke="#252525" stroke-width="1.5" stroke-linecap="round" stroke-linejoin="round"/>
<path d="M20.5 11V9.5C20.5 5.634 16.918 2.5 12.5 2.5C8.082 2.5 4.5 5.634 4.5 9.5V11M20.5 18C20.5 22.5 16.5 22.5 12.5 22.5" stroke="#252525" stroke-width="1.5" stroke-linecap="round" stroke-linejoin="round"/>
</svg>
