<svg width="163" height="34" viewBox="0 0 163 34" fill="none" xmlns="http://www.w3.org/2000/svg">
<path d="M37.768 18.3496V16.5083H42.0681V14.124C41.6877 14.0307 41.3244 13.8866 40.98 13.689C40.6347 13.4914 40.3283 13.2448 40.0608 12.9493C39.7933 12.6529 39.5827 12.3048 39.4271 11.9049C39.2725 11.5042 39.1947 11.0545 39.1947 10.5558C39.1947 10.1957 39.2488 9.84752 39.3551 9.51139C39.4622 9.17434 39.6045 8.8733 39.7838 8.60642H38.285V6.80018H41.996V4.7677H44.2081V6.80018H47.8299V8.60642H46.3842C46.5626 8.8733 46.7086 9.17526 46.8215 9.51139C46.9354 9.84752 46.9913 10.1957 46.9913 10.5558C46.9913 11.0545 46.9173 11.5014 46.7703 11.8966C46.6223 12.2909 46.4184 12.6363 46.1594 12.9318C45.8985 13.2282 45.5997 13.4748 45.263 13.6724C44.9262 13.87 44.5752 14.015 44.2091 14.1073V16.4575C44.6113 16.4224 45.0296 16.3707 45.4622 16.3005C45.8947 16.2312 46.3178 16.1435 46.7333 16.0392C47.1479 15.9348 47.551 15.8037 47.9418 15.6467C48.3327 15.4897 48.6941 15.3069 49.0251 15.0982V5.0632H51.1671V10.9861H53.808V12.8265H51.1671V21.3896H49.0251V17.042C48.5736 17.2941 48.0595 17.5037 47.4827 17.6699C46.905 17.8362 46.3026 17.971 45.6718 18.0744C45.041 18.1778 44.3931 18.2499 43.7262 18.2896C43.0603 18.3302 42.4058 18.3496 41.7645 18.3496H37.7671H37.768ZM44.9585 10.5512C44.9585 10.0184 44.7915 9.5668 44.4586 9.1965C44.1256 8.8262 43.6731 8.64059 43.103 8.64059C42.5329 8.64059 42.0795 8.8262 41.7465 9.1965C41.4135 9.5668 41.2475 10.0184 41.2475 10.5512C41.2475 10.8171 41.2921 11.072 41.3813 11.3149C41.4704 11.5577 41.5957 11.7692 41.756 11.9493C41.9163 12.1293 42.1127 12.2734 42.3441 12.3833C42.5765 12.4932 42.8288 12.5476 43.103 12.5476C43.3771 12.5476 43.6285 12.4932 43.8619 12.3833C44.0933 12.2734 44.2897 12.1284 44.45 11.9493C44.6113 11.7701 44.7355 11.5586 44.8257 11.3149C44.9139 11.072 44.9594 10.8171 44.9594 10.5512H44.9585Z" fill="#252525"/>
<path d="M60.7499 15.9006C60.0119 15.9006 59.3555 15.776 58.7778 15.5276C58.2001 15.2783 57.7125 14.943 57.315 14.5201C56.9176 14.0972 56.6102 13.6078 56.3968 13.0528C56.1814 12.4969 56.0752 11.9123 56.0752 11.2982C56.0752 10.6842 56.1814 10.0996 56.3968 9.54371C56.6102 8.98781 56.9176 8.50208 57.315 8.08468C57.7134 7.66822 58.201 7.33578 58.7778 7.08645C59.3555 6.83805 60.0119 6.71338 60.7499 6.71338C61.4879 6.71338 62.1292 6.83805 62.7116 7.08645C63.2941 7.33578 63.7855 7.66822 64.1839 8.08468C64.5813 8.50208 64.8877 8.98781 65.1021 9.54371C65.3165 10.0996 65.4228 10.6842 65.4228 11.2982C65.4228 11.9123 65.3156 12.4969 65.1021 13.0528C64.8877 13.6078 64.5813 14.0981 64.1839 14.5201C63.7855 14.943 63.2941 15.2783 62.7116 15.5276C62.1292 15.7769 61.4747 15.9006 60.7499 15.9006ZM63.2296 11.2982C63.2296 10.4644 63.0123 9.79027 62.5779 9.27407C62.1434 8.75879 61.5344 8.50115 60.7499 8.50115C59.9654 8.50115 59.3517 8.75879 58.9115 9.27407C58.4714 9.78935 58.2513 10.4644 58.2513 11.2982C58.2513 12.1321 58.4714 12.8062 58.9115 13.3215C59.3517 13.8368 59.9645 14.0944 60.7499 14.0944C61.5354 14.0944 62.1434 13.8368 62.5779 13.3215C63.0123 12.8062 63.2296 12.1312 63.2296 11.2982ZM69.7228 21.3896H67.5808V5.0632H69.7228V21.3896Z" fill="#252525"/>
<path d="M89.5105 17.5684V19.4097H74.292V17.5684H89.5105ZM87.5118 13.5385V15.3798H78.7163C78.002 15.3798 77.4319 15.2034 77.0041 14.8488C76.5753 14.4952 76.3609 14.0224 76.3609 13.4304V6.50375H87.2623V8.34416H78.5019V10.0119H87.0839V11.8181H78.5019V13.0518C78.5019 13.376 78.6755 13.5376 79.0198 13.5376H87.5127L87.5118 13.5385Z" fill="#252525"/>
<path d="M107.709 17.5684V19.4097H92.4902V17.5684H107.709ZM94.6303 6.34769H105.568V8.18903H96.7713V11.9908C96.7713 12.1423 96.8149 12.2642 96.905 12.3565C96.9942 12.4498 97.1223 12.4959 97.2883 12.4959H105.924V14.3373H96.9847C96.2704 14.3373 95.7003 14.184 95.2725 13.8774C94.8437 13.5708 94.6293 13.1211 94.6293 12.531V6.34769H94.6303Z" fill="#252525"/>
<path d="M119.662 10.5336H114.06V11.5808C114.083 11.844 114.256 11.976 114.577 11.976H120.751V13.6779H114.257C113.543 13.6779 112.975 13.5302 112.553 13.2347C112.131 12.9392 111.92 12.4969 111.92 11.9059V8.76249H117.523V7.47706H111.92V5.70591H119.664V10.5346L119.662 10.5336ZM124.516 21.0414H116.51C115.795 21.0414 115.219 20.8909 114.785 20.5917C114.35 20.2916 114.133 19.8465 114.133 19.2583V14.9107H124.517V21.0423L124.516 21.0414ZM122.374 19.201V16.7521H116.255V18.7153C116.255 19.0394 116.427 19.2019 116.772 19.2019H122.374V19.201ZM124.516 14.0944H122.374V5.0632H124.516V14.0944Z" fill="#252525"/>
<path d="M138.022 17.03C137.202 16.4048 136.469 15.739 135.828 15.0326C135.185 14.3262 134.68 13.5911 134.31 12.8265C133.906 13.6955 133.371 14.4943 132.704 15.2238C132.039 15.9533 131.343 16.6135 130.618 17.2036L129.137 15.728C129.577 15.3687 130.003 14.9985 130.413 14.6161C130.822 14.2338 131.191 13.8285 131.519 13.4C131.845 12.9715 132.131 12.5227 132.375 12.0536C132.619 11.5845 132.8 11.084 132.919 10.5512C132.978 10.2963 133.022 10.0414 133.053 9.78658C133.082 9.53171 133.098 9.27684 133.098 9.02197H129.869V7.18064H133.187V5.09645H135.472V7.18064H138.611V9.02197H135.435C135.435 9.49662 135.49 9.99435 135.596 10.5161C135.703 11.072 135.879 11.59 136.123 12.0702C136.366 12.5513 136.657 13.0001 136.997 13.4166C137.336 13.834 137.711 14.2191 138.121 14.5718C138.531 14.9255 138.951 15.2524 139.38 15.5534L138.023 17.03H138.022ZM140.378 5.0632H142.519V21.3896H140.378V5.0632Z" fill="#252525"/>
<path d="M152.332 11.5587V16.1084C152.734 16.1084 153.206 16.0881 153.745 16.0475C154.284 16.0068 154.831 15.9431 155.382 15.8563C155.933 15.7695 156.457 15.6504 156.955 15.4999C157.454 15.3484 157.875 15.1693 158.218 14.9597V5.0632H160.359V10.9861H163V12.8265H160.359V21.3896H158.218V16.7465C157.767 16.9875 157.235 17.1907 156.622 17.3569C156.009 17.5231 155.358 17.6524 154.668 17.7448C153.978 17.8362 153.277 17.9027 152.563 17.9424C151.849 17.9821 151.172 18.0024 150.53 18.0024H146.961V16.1611H150.19V11.5587H152.332ZM156.328 6.31353C156.328 9.32486 156.132 11.8892 155.739 14.0076L153.778 13.7823C153.944 12.7397 154.065 11.7581 154.143 10.8384C154.22 9.91771 154.259 9.00627 154.259 8.10223H148.05V6.31353H156.328Z" fill="#252525"/>
<path d="M41.7656 29.1185H41.0769L40.3227 26.1451L39.5582 29.1185H38.8742L37.8535 25.084H38.4568L39.2214 28.148L39.9632 25.0896H40.6699L41.4298 28.1425L42.1896 25.084H42.792L41.7665 29.1185H41.7656Z" fill="#252525"/>
<path d="M47.4573 29.1128V27.3019H45.5336V29.1128H44.9018V25.0958H45.5336V26.7266H47.4573V25.0958H48.0834V29.1128H47.4573Z" fill="#252525"/>
<path d="M50.5935 29.1128V25.0958H51.2136V29.1128H50.5935Z" fill="#252525"/>
<path d="M55.3745 25.6601V29.1248L54.738 29.1137L54.7323 25.661H53.4222V25.0968H56.7025V25.661H55.3754L55.3745 25.6601Z" fill="#252525"/>
<path d="M58.9108 29.1128V25.0958H61.7974L61.8031 25.6601H59.5425V26.7663L61.6987 26.7719V27.325H59.5425V28.555H61.8495V29.1137H58.9117L58.9108 29.1128Z" fill="#252525"/>
<path d="M70.795 25.6739C71.1365 26.0599 71.3082 26.5364 71.3082 27.1043C71.3082 27.6722 71.1375 28.1515 70.795 28.543C70.4535 28.9346 69.9877 29.1276 69.4015 29.1239H67.9691V25.0958H69.4015C69.9887 25.0958 70.4535 25.2888 70.795 25.6739ZM70.2875 28.1367C70.5028 27.8588 70.6119 27.5143 70.6119 27.1043C70.6119 26.6943 70.5038 26.3508 70.2875 26.0747C70.0712 25.7977 69.7402 25.6601 69.2953 25.6601H68.5999V28.5541H69.2953C69.7402 28.5541 70.0703 28.4156 70.2875 28.1367Z" fill="#252525"/>
<path d="M76.1641 29.1183L75.0049 27.5106H74.2394V29.1238H73.6076V25.1013H75.2942C75.6917 25.1013 76.0256 25.2103 76.2969 25.4282C76.5672 25.6471 76.7029 25.9287 76.7029 26.275C76.7029 26.5456 76.6137 26.7885 76.4335 27.0027C76.2542 27.2169 76.0265 27.3638 75.7533 27.4432L76.941 29.1192H76.1641V29.1183ZM75.7856 26.7626C75.9488 26.6481 76.0313 26.4856 76.0313 26.275C76.0313 26.0645 75.9564 25.914 75.8084 25.8124C75.6585 25.7108 75.4839 25.66 75.2828 25.66H74.2394V26.9353H75.242C75.4394 26.9353 75.6196 26.878 75.7847 26.7635L75.7856 26.7626Z" fill="#252525"/>
<path d="M79.0277 29.1128V25.0958H81.9134L81.92 25.6601H79.6595V26.7663L81.8157 26.7719V27.325H79.6595V28.555H81.9665V29.1137H79.0277V29.1128Z" fill="#252525"/>
<path d="M87.3509 29.1241L86.9506 28.1535H85.0382L84.6436 29.1241H84.0004L85.6292 25.0896H86.353L87.9931 29.1241H87.3499H87.3509ZM85.9944 25.784L85.2763 27.5782H86.7191L85.9944 25.784Z" fill="#252525"/>
<path d="M93.3841 29.1185V26.4276L92.4269 29.1185H91.7145L90.764 26.4276V29.1241H90.1323V25.084H90.8855L92.0684 28.3336L93.2446 25.084H93.9978V29.1185H93.3831H93.3841Z" fill="#252525"/>
<path d="M103.159 25.6739C103.5 26.0599 103.672 26.5364 103.672 27.1043C103.672 27.6722 103.5 28.1515 103.159 28.543C102.817 28.9346 102.351 29.1276 101.765 29.1239H100.334V25.0958H101.765C102.352 25.0958 102.817 25.2888 103.159 25.6739ZM102.651 28.1367C102.868 27.8588 102.976 27.5143 102.976 27.1043C102.976 26.6943 102.868 26.3508 102.651 26.0747C102.435 25.7977 102.105 25.6601 101.66 25.6601H100.964V28.5541H101.66C102.105 28.5541 102.435 28.4156 102.651 28.1367Z" fill="#252525"/>
<path d="M105.973 29.1128V25.0958H108.859L108.864 25.6601H106.604V26.7663L108.76 26.7719V27.325H106.604V28.555H108.911V29.1137H105.973V29.1128Z" fill="#252525"/>
<path d="M113.704 29.1183L111.838 25.9759V29.1239H111.207V25.0958H111.938L113.815 28.2272L113.822 25.0958H114.435L114.441 29.1183H113.705H113.704Z" fill="#252525"/>
<path d="M118.596 25.6601V29.1248L117.958 29.1137L117.952 25.661H116.642V25.0968H119.922V25.661H118.595L118.596 25.6601Z" fill="#252525"/>
<path d="M124.525 29.1241L124.126 28.1535H122.212L121.819 29.1241H121.175L122.803 25.0896H123.528L125.168 29.1241H124.525ZM123.169 25.784L122.45 27.5782H123.893L123.168 25.784H123.169Z" fill="#252525"/>
<path d="M127.308 29.1128V25.0958H127.939V28.5541H130.078V29.1128H127.308Z" fill="#252525"/>
<path d="M138.871 26.3318C138.809 26.1471 138.696 25.9735 138.534 25.81C138.372 25.6466 138.119 25.5644 137.774 25.5644C137.396 25.5644 137.099 25.7048 136.881 25.9846C136.665 26.2644 136.557 26.6402 136.557 27.1102C136.557 27.5803 136.665 27.9543 136.881 28.2415C137.098 28.5296 137.395 28.6736 137.774 28.6736C138.106 28.6736 138.359 28.5813 138.534 28.3966C138.707 28.2128 138.823 28.0152 138.882 27.8047H139.549C139.475 28.1242 139.296 28.4418 139.013 28.7577C138.729 29.0735 138.317 29.2314 137.775 29.2314C137.188 29.2314 136.726 29.0347 136.387 28.6413C136.048 28.2488 135.88 27.7382 135.88 27.1093C135.88 26.4805 136.048 25.9735 136.387 25.5856C136.725 25.1987 137.187 25.0048 137.775 25.0048C138.328 25.0048 138.747 25.1572 139.034 25.4619C139.319 25.7666 139.493 26.0557 139.555 26.3309H138.871L138.871 26.3318Z" fill="#252525"/>
<path d="M141.809 29.1128V25.0958H142.441V28.5541H144.579V29.1128H141.809Z" fill="#252525"/>
<path d="M146.758 29.1128V25.0958H147.378V29.1128H146.758Z" fill="#252525"/>
<path d="M152.38 29.1183L150.515 25.9759V29.1239H149.883V25.0958H150.613L152.49 28.2272L152.497 25.0958H153.112L153.118 29.1183H152.381H152.38Z" fill="#252525"/>
<path d="M155.615 29.1128V25.0958H156.235V29.1128H155.615Z" fill="#252525"/>
<path d="M161.526 26.3318C161.464 26.1471 161.352 25.9735 161.189 25.81C161.027 25.6466 160.775 25.5644 160.429 25.5644C160.052 25.5644 159.754 25.7048 159.537 25.9846C159.321 26.2644 159.212 26.6402 159.212 27.1102C159.212 27.5803 159.321 27.9543 159.537 28.2415C159.753 28.5296 160.051 28.6736 160.429 28.6736C160.762 28.6736 161.016 28.5813 161.189 28.3966C161.364 28.2128 161.48 28.0152 161.537 27.8047H162.203C162.129 28.1242 161.951 28.4418 161.667 28.7577C161.384 29.0735 160.971 29.2314 160.429 29.2314C159.842 29.2314 159.379 29.0347 159.042 28.6413C158.703 28.2488 158.534 27.7382 158.534 27.1093C158.534 26.4805 158.703 25.9735 159.042 25.5856C159.379 25.1987 159.842 25.0048 160.429 25.0048C160.983 25.0048 161.402 25.1572 161.688 25.4619C161.975 25.7666 162.148 26.0557 162.21 26.3309H161.526V26.3318Z" fill="#252525"/>
<path d="M32.5331 15.5091C32.5331 15.8249 32.2704 16.0816 31.9452 16.0816C31.6199 16.0816 31.3563 15.824 31.3563 15.5091C31.3563 15.1942 31.6209 14.9357 31.9452 14.9357C32.2695 14.9357 32.5331 15.1914 32.5331 15.5091Z" fill="#252525"/>
<path d="M3.58642 15.5091C3.58642 15.8249 3.32281 16.0816 2.99852 16.0816C2.67422 16.0816 2.40967 15.824 2.40967 15.5091C2.40967 15.1942 2.67422 14.9357 2.99852 14.9357C3.32281 14.9357 3.58642 15.1914 3.58642 15.5091Z" fill="#252525"/>
<path d="M17.4638 34C7.83358 34 0 26.3743 0 16.9995C0 7.62481 7.83358 0 17.4638 0C27.0941 0 34.9277 7.62574 34.9277 16.9995C34.9277 26.3733 27.0931 34 17.4638 34ZM17.4638 0.316739C8.01287 0.316739 0.32632 7.80027 0.32632 16.9995C0.32632 26.1988 8.01287 33.6823 17.4638 33.6823C26.9148 33.6823 34.6004 26.1979 34.6004 16.9995C34.6004 7.80119 26.9138 0.316739 17.4638 0.316739Z" fill="#252525"/>
<path d="M17.4638 28.6782C10.8482 28.6782 5.46582 23.4396 5.46582 16.9995C5.46582 10.5595 10.8482 5.32084 17.4638 5.32084C24.0794 5.32084 29.4599 10.5604 29.4599 16.9995C29.4599 23.4387 24.0794 28.6782 17.4638 28.6782ZM17.4638 5.63758C11.0275 5.63758 5.79309 10.7349 5.79309 16.9995C5.79309 23.2641 11.0284 28.3615 17.4638 28.3615C23.8991 28.3615 29.1335 23.265 29.1335 16.9995C29.1335 10.734 23.8982 5.63758 17.4638 5.63758Z" fill="#252525"/>
<path d="M18.4742 20.1706C18.4666 20.4403 18.4296 20.685 18.3641 20.9075C18.2996 21.1282 18.1858 21.3101 18.0245 21.4523C17.8614 21.5964 17.6261 21.6657 17.3159 21.6657C17.0247 21.6657 16.797 21.5918 16.6339 21.4413C16.4707 21.2907 16.3493 21.0987 16.2696 20.8613C16.2023 20.6388 16.1634 20.3913 16.1472 20.1134C16.1311 19.8336 16.1216 19.5796 16.1216 19.3423V10.4136H13.6609V19.3164C13.6609 19.5556 13.6496 19.8123 13.6239 20.0894C13.5993 20.3664 13.5471 20.6231 13.4665 20.8604C13.3849 21.0977 13.2673 21.2907 13.1136 21.4403C12.959 21.5909 12.7427 21.6647 12.4666 21.6647C12.1413 21.6647 11.8965 21.5955 11.7362 21.4514C11.5731 21.3092 11.4516 21.1208 11.371 20.8817C11.3056 20.661 11.2695 20.4181 11.2591 20.1466C11.2534 19.8797 11.2477 19.6193 11.2477 19.3645V10.4127H8.88281V19.4116C8.88281 20.8521 9.13609 21.9787 9.6398 22.7923C10.1426 23.6076 11.0361 24.014 12.3206 24.014C12.9874 24.014 13.5234 23.8847 13.9294 23.6224C14.3354 23.362 14.6589 23.0102 14.9036 22.5669C15.099 23.0102 15.4149 23.3611 15.8551 23.6224C16.2933 23.8847 16.8539 24.014 17.536 24.014C17.8841 24.014 18.1991 23.9798 18.4874 23.9207V19.3875C18.4874 19.6415 18.4818 19.9028 18.4742 20.1697V20.1706Z" fill="#252525"/>
<path d="M25.7612 11.6842C24.9729 10.8264 23.678 10.4007 21.8738 10.4007H18.4863V23.9235H21.8966C23.6847 23.9235 24.9719 23.5061 25.7602 22.6676C26.5476 21.8309 26.9412 20.5003 26.9412 18.6811V15.3854C26.9412 13.7712 26.5476 12.5366 25.7602 11.6842H25.7612ZM24.4578 18.8483C24.4578 19.7975 24.2709 20.4726 23.8981 20.878C23.5234 21.2806 22.8575 21.4819 21.8975 21.4819H20.948V12.869H21.8738C22.8328 12.869 23.5045 13.0685 23.8839 13.4646C24.2652 13.8589 24.4578 14.4601 24.4578 15.2672V18.8492V18.8483Z" fill="#252525"/>
<path d="M5.09859 12.1358L4.73527 11.9363L5.20009 11.1339L4.72958 10.8762C4.67077 10.9372 4.60247 10.9898 4.52658 11.0323C4.45069 11.0757 4.36911 11.1062 4.28184 11.1237C4.19457 11.1413 4.1035 11.144 4.00769 11.1293C3.91188 11.1145 3.81512 11.0812 3.71647 11.0268C3.64532 10.988 3.58272 10.9399 3.5277 10.8836C3.47268 10.8273 3.42904 10.7682 3.39584 10.7063L3.23363 10.9861L2.87695 10.7913L3.27821 10.0987L2.8779 9.87892L3.11695 9.46614L3.51726 9.68592L3.90904 9.00997L4.26476 9.20481L4.10824 9.47445C4.18034 9.46984 4.25528 9.47445 4.33306 9.49015C4.4118 9.50585 4.48674 9.53263 4.55788 9.57141C4.65559 9.62497 4.73622 9.68777 4.79788 9.75703C4.85954 9.82721 4.90507 9.90293 4.93543 9.98327C4.96578 10.0636 4.98191 10.1458 4.98475 10.2298C4.9876 10.3139 4.97811 10.396 4.9563 10.4736L5.41922 10.7276C5.45621 10.6491 5.49036 10.565 5.52356 10.4764C5.55676 10.3887 5.58522 10.2991 5.60989 10.2104C5.63455 10.1218 5.65162 10.0322 5.66301 9.94264C5.67439 9.85306 5.67724 9.76534 5.67249 9.6813L3.69465 8.59719L3.92611 8.19734L5.0929 8.83728L5.37843 8.34417L5.74174 8.54363L5.45621 9.03675L7.14378 9.9611L6.91232 10.361L6.05573 9.89092C6.05573 10.0027 6.04245 10.1218 6.01209 10.2474C5.98269 10.373 5.94474 10.5004 5.89637 10.6287C5.84893 10.758 5.79297 10.8864 5.72846 11.0147C5.66491 11.1431 5.59755 11.2678 5.52831 11.3878L5.09669 12.134L5.09859 12.1358ZM4.33875 9.95095C4.23346 9.89369 4.12722 9.87615 4.01718 9.89831C3.90904 9.92047 3.82271 9.98511 3.76105 10.0913C3.69939 10.1984 3.68706 10.3028 3.72406 10.4044C3.76105 10.5069 3.8322 10.5863 3.93655 10.6435C3.98872 10.6722 4.04374 10.6915 4.1016 10.7017C4.15947 10.7109 4.21354 10.7109 4.26761 10.6999C4.31978 10.6888 4.37006 10.6685 4.41654 10.6361C4.46302 10.6047 4.50191 10.5632 4.53132 10.5124C4.56073 10.4607 4.5778 10.408 4.58065 10.3526C4.58349 10.2972 4.57685 10.2455 4.55883 10.1957C4.54081 10.1458 4.51235 10.1005 4.47441 10.0571C4.43646 10.0147 4.39093 9.97865 4.33875 9.95002V9.95095Z" fill="#252525"/>
<path d="M9.9483 5.74008C9.80791 5.82041 9.66846 5.86751 9.53091 5.88229C9.39337 5.89798 9.26246 5.8869 9.13819 5.84996C9.01392 5.81303 8.89914 5.753 8.7948 5.67082C8.6914 5.58863 8.60318 5.4889 8.53393 5.37255C8.46373 5.2562 8.41725 5.13338 8.39449 5.0041C8.37172 4.87574 8.37362 4.75015 8.40207 4.62734C8.43053 4.50544 8.4846 4.38909 8.56618 4.2792C8.64776 4.16931 8.7578 4.0742 8.8982 3.99478C9.03574 3.91629 9.17424 3.86827 9.31368 3.85257C9.45313 3.83687 9.58404 3.84703 9.70736 3.88305C9.83067 3.91906 9.94451 3.97816 10.0479 4.06035C10.1523 4.14345 10.2395 4.24226 10.3097 4.35862C10.3799 4.47497 10.4264 4.59779 10.4492 4.72614C10.4719 4.8545 10.47 4.98101 10.4425 5.10475C10.415 5.22849 10.36 5.34485 10.2775 5.45566C10.1959 5.56647 10.0858 5.66066 9.9483 5.73915V5.74008ZM9.89328 4.59686C9.79747 4.43895 9.6789 4.33461 9.53756 4.28289C9.39621 4.2321 9.25108 4.24965 9.1012 4.33461C8.95227 4.41956 8.86594 4.53499 8.84128 4.68089C8.81662 4.8268 8.85171 4.97824 8.94752 5.13707C9.04238 5.29498 9.16191 5.39933 9.3042 5.45012C9.44649 5.49998 9.59257 5.48244 9.74151 5.39748C9.89138 5.31252 9.97676 5.1971 10.0005 5.05212C10.0242 4.90714 9.98814 4.75569 9.89328 4.59686ZM12.28 5.81026L11.874 6.04204L10.0071 2.94114L10.4131 2.70844L12.28 5.80933V5.81026Z" fill="#252525"/>
<path d="M19.1545 3.98186L19.1479 4.38725L15.7983 4.33461L15.805 3.92922L19.1545 3.98186ZM18.7286 3.08705L18.7219 3.49244L16.7858 3.46197C16.6293 3.4592 16.5041 3.41856 16.4102 3.33915C16.3182 3.25973 16.2717 3.15539 16.2745 3.02518L16.3002 1.50059L18.7001 1.53845L18.6935 1.94384L16.765 1.91336L16.7583 2.28089L18.647 2.31044L18.6404 2.70844L16.7507 2.67889L16.746 2.95038C16.745 3.02149 16.783 3.05842 16.8579 3.05935L18.7276 3.0889L18.7286 3.08705Z" fill="#252525"/>
<path d="M25.6933 6.57487L25.4818 6.92485L22.5942 5.27097L22.8058 4.92191L25.6933 6.57487ZM24.499 3.02518L26.5736 4.21364L26.363 4.56362L24.6935 3.60787L24.2571 4.32907C24.2401 4.3577 24.2344 4.38632 24.2401 4.4131C24.2467 4.43988 24.2657 4.46297 24.297 4.48144L25.9362 5.41965L25.7246 5.76963L24.0285 4.79817C23.8929 4.72061 23.8018 4.63011 23.7563 4.52484C23.7107 4.42049 23.7212 4.31152 23.7885 4.19979L24.4981 3.0261L24.499 3.02518Z" fill="#252525"/>
<path d="M29.1437 12.1644L28.2814 10.6675C28.2046 10.5336 28.1724 10.4099 28.1847 10.2972C28.1961 10.1837 28.2606 10.095 28.3773 10.0313L29.2348 9.56311L30.3532 11.5042L29.1437 12.1644ZM29.2765 11.566L29.7594 11.3019L29.1001 10.1578L28.7121 10.3693C28.6486 10.4044 28.6353 10.4542 28.6713 10.5179L29.2746 11.5651L29.2765 11.566ZM30.6937 10.1255L30.0904 9.0783L29.8836 9.19096C29.8343 9.22328 29.8277 9.27038 29.8618 9.3304L30.5268 10.4838L30.191 10.6675L29.4919 9.45414C29.415 9.32024 29.3837 9.19835 29.3961 9.08754C29.4093 8.97673 29.4738 8.88992 29.5896 8.82621L30.21 8.48731L30.8133 9.53448L31.0666 9.39597L30.4632 8.34879L30.8123 8.15764L31.6461 9.60466L30.6937 10.1246V10.1255ZM30.5145 11.4155L30.284 11.0157L32.0654 10.0433L32.2959 10.4441L30.5145 11.4164V11.4155Z" fill="#252525"/>
<path d="M2.05388 21.8919L1.92866 21.4126L3.97385 20.3488L1.65356 20.3571L1.5293 19.8816L4.30397 18.4401L4.41401 18.8593L2.3062 19.9471L4.68341 19.9074L4.81147 20.3996L2.71031 21.4819L5.09131 21.4542L5.2004 21.8734L2.05577 21.8928L2.05388 21.8919Z" fill="#252525"/>
<path d="M4.20164 26.028L5.35799 25.3105L4.59626 24.1469L3.44086 24.8644L3.19043 24.4821L5.75451 22.892L6.00494 23.2743L4.96337 23.9198L5.72415 25.0842L6.76572 24.4387L7.01331 24.8173L4.44828 26.4075L4.20069 26.0289L4.20164 26.028Z" fill="#252525"/>
<path d="M5.94043 28.0401L8.07678 25.9338L8.40107 26.2468L6.26472 28.3532L5.94043 28.0401Z" fill="#252525"/>
<path d="M10.378 28.2507L8.96746 30.4023L8.57568 30.1492L9.97867 28.0023L9.16572 27.4971L9.39528 27.1462L11.4329 28.4123L11.2033 28.7622L10.379 28.2507H10.378Z" fill="#252525"/>
<path d="M11.7197 31.7468L12.619 28.9183L14.6509 29.5296L14.5285 29.9276L12.9377 29.4493L12.6901 30.2277L14.206 30.6876L14.0827 31.0773L12.5649 30.6202L12.2898 31.4864L13.9129 31.9749L13.7886 32.3683L11.7197 31.7459V31.7468Z" fill="#252525"/>
<path d="M20.7054 29.8528C21.0033 30.0911 21.1892 30.4161 21.2622 30.8289C21.3353 31.2417 21.2727 31.6101 21.0754 31.9361C20.8771 32.2621 20.565 32.4597 20.1381 32.529L19.0985 32.7044L18.5796 29.7799L19.6193 29.6044C20.0452 29.5324 20.4076 29.6155 20.7054 29.8538V29.8528ZM20.6551 31.7025C20.7756 31.4744 20.8098 31.2103 20.7576 30.9129C20.7045 30.6156 20.5821 30.3792 20.3895 30.2047C20.197 30.0301 19.9389 29.971 19.6164 30.0255L19.1118 30.1105L19.4846 32.2122L19.9892 32.1273C20.3117 32.0728 20.5337 31.9315 20.6551 31.7025Z" fill="#252525"/>
<path d="M25.3135 30.7827L24.0101 30.0865L23.5045 30.3284L24.0433 31.395L23.6259 31.5944L22.2827 28.9349L23.3983 28.4012C23.662 28.2747 23.9191 28.2414 24.1704 28.3005C24.4218 28.3587 24.6058 28.5028 24.7216 28.7318C24.8117 28.9109 24.8335 29.0993 24.787 29.2978C24.7396 29.4964 24.6381 29.6654 24.4835 29.8048L25.8286 30.5362L25.3154 30.7818L25.3135 30.7827ZM24.2767 29.3459C24.3469 29.2175 24.3469 29.0845 24.2767 28.9451C24.2074 28.8084 24.1069 28.7299 23.975 28.7096C23.8432 28.6893 23.7104 28.7115 23.5776 28.7752L22.8879 29.1058L23.3138 29.9489L23.9769 29.6312C24.1069 29.5693 24.2074 29.4733 24.2776 29.3459H24.2767Z" fill="#252525"/>
<path d="M27.4823 29.3837L25.4561 27.1776L27.0412 25.7971L27.3286 26.1037L26.0878 27.185L26.6456 27.7926L27.8333 26.7649L28.1121 27.0687L26.9283 28.1001L27.5477 28.7761L28.8151 27.6726L29.0968 27.9792L27.4823 29.3846V29.3837Z" fill="#252525"/>
<path d="M31.7383 24.4646L30.9586 24.3316L30.2158 25.4979L30.6863 26.1148L30.4368 26.5063L28.4761 23.9465L28.7578 23.5051L31.9888 24.073L31.7393 24.4655L31.7383 24.4646ZM29.0633 23.9936L29.9369 25.1285L30.4976 24.2494L29.0633 23.9936Z" fill="#252525"/>
<path d="M33.3918 19.8714L31.4149 19.3958L33.2229 20.5372L33.0968 21.034L30.951 21.2205L32.9327 21.697L32.8207 22.1366L29.8525 21.4228L29.9863 20.8983L32.5826 20.6499L30.4027 19.2564L30.5365 18.7319L33.4999 19.4448L33.3918 19.8733V19.8714Z" fill="#252525"/>
</svg>
