<svg width="64" height="66" viewBox="0 0 64 66" fill="none" xmlns="http://www.w3.org/2000/svg">
<g filter="url(#filter0_d_1108_15404)">
<rect width="56" height="56" rx="28" fill="url(#paint0_linear_1108_15404)"/>
<path d="M22.5887 33.4113C19.7988 30.616 17.6532 27.245 16.3021 23.5339C15.5588 21.505 16.2398 19.2763 17.768 17.7481L18.7137 16.8037C18.968 16.5489 19.27 16.3468 19.6024 16.2089C19.9349 16.071 20.2913 16 20.6512 16C21.0111 16 21.3675 16.071 21.7 16.2089C22.0324 16.3468 22.3344 16.5489 22.5887 16.8037L24.8031 19.0181C25.0579 19.2724 25.26 19.5744 25.3979 19.9068C25.5358 20.2393 25.6068 20.5957 25.6068 20.9556C25.6068 21.3155 25.5358 21.6719 25.3979 22.0044C25.26 22.3368 25.0579 22.6388 24.8031 22.8931L24.2583 23.4379C24.0402 23.656 23.8672 23.9148 23.7491 24.1997C23.6311 24.4847 23.5704 24.79 23.5704 25.0984C23.5704 25.4068 23.6311 25.7122 23.7491 25.9971C23.8672 26.282 24.0402 26.5409 24.2583 26.7589L29.2398 31.7418C29.4578 31.9598 29.7167 32.1328 30.0016 32.2509C30.2865 32.3689 30.5919 32.4297 30.9003 32.4297C31.2087 32.4297 31.5141 32.3689 31.799 32.2509C32.0839 32.1328 32.3427 31.9598 32.5608 31.7418L33.1069 31.1969C33.3612 30.9421 33.6632 30.74 33.9956 30.6021C34.3281 30.4642 34.6845 30.3932 35.0444 30.3932C35.4043 30.3932 35.7607 30.4642 36.0932 30.6021C36.4256 30.74 36.7276 30.9421 36.9819 31.1969L39.1963 33.4113C39.4511 33.6656 39.6532 33.9676 39.7911 34.3C39.929 34.6325 40 34.9889 40 35.3488C40 35.7087 39.929 36.0651 39.7911 36.3976C39.6532 36.7301 39.4511 37.032 39.1963 37.2863L38.2519 38.2307C36.7237 39.7602 34.495 40.4413 32.4661 39.6979C28.7551 38.3468 25.384 36.2012 22.5887 33.4113Z" stroke="#252525" stroke-width="1.5" stroke-linejoin="round"/>
</g>
<defs>
<filter id="filter0_d_1108_15404" x="0" y="0" width="64" height="66" filterUnits="userSpaceOnUse" color-interpolation-filters="sRGB">
<feFlood flood-opacity="0" result="BackgroundImageFix"/>
<feColorMatrix in="SourceAlpha" type="matrix" values="0 0 0 0 0 0 0 0 0 0 0 0 0 0 0 0 0 0 127 0" result="hardAlpha"/>
<feOffset dx="4" dy="6"/>
<feGaussianBlur stdDeviation="2"/>
<feComposite in2="hardAlpha" operator="out"/>
<feColorMatrix type="matrix" values="0 0 0 0 0 0 0 0 0 0 0 0 0 0 0 0 0 0 0.1 0"/>
<feBlend mode="normal" in2="BackgroundImageFix" result="effect1_dropShadow_1108_15404"/>
<feBlend mode="normal" in="SourceGraphic" in2="effect1_dropShadow_1108_15404" result="shape"/>
</filter>
<linearGradient id="paint0_linear_1108_15404" x1="14" y1="10" x2="47.5" y2="56" gradientUnits="userSpaceOnUse">
<stop offset="0.0120341" stop-color="#FEE7FF"/>
<stop offset="1" stop-color="#C5FDFA"/>
</linearGradient>
</defs>
</svg>
