<svg width="160" height="160" viewBox="0 0 160 160" fill="none" xmlns="http://www.w3.org/2000/svg">
<path d="M131.43 53.7617L149.51 71.8617" stroke="#01C2CA" stroke-width="5" stroke-linecap="round" stroke-linejoin="round"/>
<path d="M115.27 8.95813L134.2 27.8881C134.63 28.3181 134.89 28.8281 135.02 29.3781L137.44 44.2781C137.81 45.4881 137.39 46.7481 136.5 47.4981L130.83 53.1681C130.83 53.1681 130.72 53.2781 130.65 53.3281L124.96 59.0181C124.07 59.9081 122.77 60.1381 121.67 59.7081L107.7 56.3681C107.17 56.2081 106.74 55.9381 106.4 55.5681L87.4701 36.6381C86.2801 35.4481 86.2801 33.5081 87.4701 32.3181L87.5201 32.2681L110.88 8.90813C112.07 7.71812 114.01 7.71812 115.2 8.90813L115.25 8.95813H115.27Z" stroke="#4A4A4A" stroke-width="5" stroke-linecap="round" stroke-linejoin="round"/>
<path d="M132.09 27.8398L106.28 53.6198" stroke="#4A4A4A" stroke-width="5" stroke-linecap="round" stroke-linejoin="round"/>
<path d="M106.61 147.91C90.1801 140.05 72.7801 142.88 57.4701 146.4C44.7801 149.3 33.5401 152.69 25.4201 150.86C13.6701 148.21 9.19009 132.57 17.6701 123.98" stroke="#4A4A4A" stroke-width="5" stroke-linecap="round" stroke-linejoin="round"/>
<path d="M98.4 51.4319L80.69 82.6119L37.63 125.672C33.93 129.372 32.72 131.732 28.05 129.302C21.26 125.732 15.34 119.812 11.78 113.032C9.32996 108.392 12.72 106.152 16.44 102.422L59.5 59.3619L89.63 42.6719" stroke="#4A4A4A" stroke-width="5" stroke-linecap="round" stroke-linejoin="round"/>
</svg>
