<svg width="160" height="160" viewBox="0 0 160 160" fill="none" xmlns="http://www.w3.org/2000/svg">
<g clip-path="url(#clip0_723_7536)">
<path d="M158.86 95.9809C155.84 80.2509 149.03 71.2509 140.16 71.2509C131.29 71.2509 124.02 81.3509 121.26 98.0209C120.32 91.6009 118.81 85.9309 116.8 81.2009C112.89 72.0609 107.29 67.2109 100.57 67.2109C93.85 67.2109 88.25 72.0609 84.34 81.2009C82.3699 85.7909 80.91 91.3009 79.95 97.5009C79.0099 91.3109 77.53 85.8009 75.58 81.2009C71.67 72.0609 66.07 67.2109 59.35 67.2109C52.63 67.2109 47.03 72.0609 43.12 81.2009C41.11 85.9309 39.6 91.6009 38.66 98.0209C35.89 81.3609 29.04 71.2509 19.76 71.2509C10.48 71.2509 4.12996 80.2609 1.10996 96.0009C-0.510044 106.291 0.379956 113.281 3.87996 117.421C6.13996 120.121 9.45996 121.491 13.75 121.561H32.72C34.69 121.561 36.54 120.781 37.91 119.391C38.23 119.071 38.53 118.701 38.78 118.341C39.03 118.711 39.33 119.071 39.65 119.391C41.04 120.781 42.9 121.561 44.86 121.561H73.91C75.88 121.561 77.73 120.781 79.12 119.391C79.44 119.071 79.71 118.731 79.97 118.341C80.22 118.711 80.5 119.051 80.82 119.391C82.21 120.781 84.07 121.561 86.03 121.561H115.08C117.05 121.561 118.9 120.781 120.29 119.391C120.61 119.071 120.91 118.701 121.16 118.341C121.41 118.711 121.71 119.071 122.03 119.391C123.43 120.781 125.25 121.561 127.22 121.561H146.21C150.48 121.511 153.8 120.121 156.06 117.421C159.53 113.281 160.45 106.291 158.8 95.9809H158.85H158.86ZM36.14 117.601C35.23 118.511 34.01 119.021 32.73 119.021H13.78C10.21 118.971 7.60996 117.921 5.82996 115.801C2.85996 112.261 2.12996 105.931 3.63996 96.4609C6.40996 82.0409 12.3 73.7609 19.85 73.7609C30.16 73.7609 37.27 89.9909 37.56 114.151C37.56 115.451 37.08 116.691 36.17 117.621L36.15 117.601H36.14ZM77.35 117.601C76.4399 118.511 75.22 119.021 73.92 119.021H44.87C43.57 119.021 42.36 118.521 41.44 117.601C40.55 116.681 40.05 115.501 40.07 114.221C40.28 87.5909 48.05 69.6909 59.41 69.6909C70.77 69.6909 78.54 87.5909 78.75 114.221C78.75 115.501 78.27 116.691 77.38 117.601H77.36H77.35ZM118.54 117.601C117.63 118.511 116.41 119.021 115.11 119.021H86.06C84.7599 119.021 83.5499 118.521 82.63 117.601C81.74 116.681 81.24 115.501 81.26 114.221C81.47 87.5909 89.24 69.6909 100.6 69.6909C111.96 69.6909 119.73 87.5909 119.94 114.221C119.94 115.501 119.46 116.691 118.57 117.601H118.55H118.54ZM154.19 115.791C152.39 117.921 149.78 118.971 146.24 119.011H127.27C125.99 119.011 124.78 118.511 123.86 117.591C122.95 116.651 122.44 115.441 122.47 114.121C122.77 89.9609 129.87 73.7309 140.18 73.7309C147.72 73.7309 153.62 82.0009 156.39 96.3809C157.9 105.891 157.19 112.241 154.19 115.761V115.781V115.791Z" fill="#4A4A4A" stroke="#4A4A4A" stroke-width="0.8"/>
<path d="M120 65.1206L133.33 60.3206C133.97 60.0906 134.43 59.5006 134.49 58.8106C134.54 58.1206 134.19 57.4606 133.6 57.1406L126.56 53.2306L135.15 48.0606L133.85 45.8906L124.11 51.7406C123.58 52.0606 123.24 52.6506 123.26 53.2706C123.26 53.8906 123.63 54.4806 124.15 54.7806L130.87 58.5306L119.14 62.7606L119.99 65.1406V65.1206H120Z" fill="#01C2CA" stroke="#01C2CA" stroke-width="0.8"/>
<path d="M103.02 49.5131C103.48 49.9031 104.12 50.0131 104.67 49.8131L110.43 47.7831L106.66 57.2231L109.01 58.1631L113.47 46.9831C113.72 46.3631 113.58 45.6831 113.13 45.2031C112.67 44.7231 111.99 44.5631 111.37 44.7931L105.22 46.9631L106.71 38.9131L104.22 38.4531L102.46 47.9431C102.35 48.5331 102.57 49.1331 103.01 49.5231H103.03L103.02 49.5131Z" fill="#01C2CA" stroke="#01C2CA" stroke-width="0.8"/>
<path d="M26.4199 57.1172C25.8299 57.4572 25.4599 58.0972 25.5299 58.7872C25.5799 59.4772 26.0299 60.0672 26.6699 60.2972L39.9999 65.0972L40.8499 62.7172L29.1199 58.4872L35.8399 54.7572C36.3899 54.4572 36.7299 53.8872 36.7499 53.2472C36.7699 52.6072 36.4299 52.0372 35.8999 51.7172L26.1599 45.8672L24.8599 48.0372L33.4499 53.2072L26.4099 57.1172H26.4199Z" fill="#01C2CA" stroke="#01C2CA" stroke-width="0.8"/>
<path d="M50.9702 58.1731L53.3202 57.2331L49.5502 47.7931L55.3102 49.8231C55.8802 50.0331 56.5002 49.9131 56.9602 49.5231C57.4202 49.1331 57.6202 48.5131 57.5102 47.9431L55.7502 38.4531L53.2602 38.9131L54.7502 46.9631L48.6002 44.7931C47.9802 44.5631 47.2702 44.7431 46.8402 45.2031C46.3802 45.6831 46.2502 46.3731 46.5002 46.9831L50.9602 58.1631H50.9802L50.9702 58.1731Z" fill="#01C2CA" stroke="#01C2CA" stroke-width="0.8"/>
</g>
<defs>
<clipPath id="clip0_723_7536">
<rect width="160" height="160" fill="white"/>
</clipPath>
</defs>
</svg>
