<svg width="160" height="160" viewBox="0 0 160 160" fill="none" xmlns="http://www.w3.org/2000/svg">
<path d="M80 67.0825C90.3772 67.0825 98.8343 58.6254 98.8343 48.2483C98.8343 37.8711 90.3772 29.414 80 29.414C69.6229 29.414 61.1657 37.8711 61.1657 48.2483C61.1657 58.6254 69.6229 67.0825 80 67.0825ZM80 31.9054C89.0057 31.9054 96.32 39.2197 96.32 48.2254C96.32 57.2311 89.0057 64.5454 80 64.5454C70.9943 64.5454 63.68 57.2311 63.68 48.2254C63.68 39.2197 70.9943 31.9054 80 31.9054ZM61.6915 66.5568C56.8 61.6654 54.1029 55.174 54.1029 48.2483C54.1029 41.3225 56.8 34.8311 61.6915 29.9397L59.9315 28.1797C54.56 33.5511 51.6115 40.6825 51.6115 48.2483C51.6115 55.814 54.56 62.9683 59.9315 68.3168L61.6915 66.5568ZM98.3086 66.5568L100.069 68.3168C105.44 62.9454 108.389 55.814 108.389 48.2483C108.389 40.6825 105.44 33.5283 100.069 28.1797L98.3086 29.9397C103.2 34.8311 105.897 41.3225 105.897 48.2483C105.897 55.174 103.2 61.6654 98.3086 66.5568ZM123.749 71.5854C124.434 71.6768 125.097 71.7225 125.783 71.7225C129.28 71.7225 132.663 70.5797 135.474 68.3854L133.943 66.3968C131.109 68.5911 127.611 69.5511 124.069 69.094C120.526 68.6368 117.349 66.8311 115.177 64.0197L113.211 65.5511C115.817 68.9111 119.566 71.0368 123.771 71.5854H123.749ZM36.2743 71.5854C40.48 71.0597 44.2286 68.9111 46.8343 65.5511L44.8686 64.0197C42.6743 66.854 39.52 68.6597 35.9772 69.094C32.4343 69.5511 28.9143 68.5911 26.1029 66.3968L24.5715 68.3854C27.3829 70.5568 30.7657 71.7225 34.2629 71.7225C34.9257 71.7225 35.6115 71.6768 36.2972 71.5854H36.2743ZM158.149 106.488C155.154 90.8997 148.411 81.9625 139.634 81.9625C130.857 81.9625 123.634 91.974 120.891 108.477C119.954 102.123 118.469 96.4997 116.48 91.814C112.617 82.7397 107.04 77.9625 100.411 77.9625C93.7829 77.9625 88.2057 82.7625 84.3429 91.814C82.4 96.3625 80.9372 101.825 80 107.951C79.0629 101.803 77.6 96.3625 75.6572 91.814C71.7715 82.7397 66.2172 77.9625 59.5886 77.9625C52.96 77.9625 47.3829 82.7625 43.52 91.814C41.5315 96.4997 40.0457 102.123 39.1086 108.477C36.3657 91.974 29.5772 81.9625 20.3657 81.9625C11.1543 81.9625 4.84575 90.8997 1.85146 106.511C0.228606 116.705 1.12003 123.631 4.57146 127.723C6.81146 130.374 10.1029 131.768 14.3543 131.814H33.1657C35.1086 131.814 36.9372 131.06 38.3086 129.665C38.6286 129.345 38.9029 128.98 39.1543 128.614C39.4057 128.98 39.68 129.345 40.0229 129.665C41.3943 131.06 43.2229 131.814 45.1886 131.814H73.9886C75.9315 131.814 77.7829 131.06 79.1543 129.665C79.4743 129.345 79.7486 129.003 80 128.637C80.2515 129.003 80.5257 129.345 80.8457 129.665C82.2172 131.06 84.0457 131.814 86.0115 131.814H114.811C116.754 131.814 118.606 131.06 119.977 129.665C120.297 129.345 120.594 128.98 120.846 128.614C121.097 128.98 121.371 129.323 121.691 129.665C123.063 131.06 124.891 131.814 126.834 131.814H145.646C149.874 131.768 153.166 130.374 155.429 127.723C158.88 123.631 159.771 116.683 158.149 106.465V106.488ZM36.5486 127.905C35.6572 128.82 34.4457 129.323 33.1657 129.323H14.3772C10.8572 129.277 8.27432 128.225 6.49146 126.123C3.58861 122.671 2.85718 116.203 4.32003 106.945C7.06289 92.6597 12.9143 84.454 20.3886 84.454C30.6057 84.454 37.6457 100.545 37.9429 124.477C37.9429 125.78 37.4629 126.991 36.5715 127.905H36.5486ZM77.3715 127.905C76.48 128.82 75.2686 129.323 73.9886 129.323H45.1886C43.9086 129.323 42.6972 128.82 41.8057 127.905C40.9143 127.014 40.4343 125.825 40.4343 124.568C40.64 98.1911 48.32 80.454 59.5886 80.454C70.8572 80.454 78.5372 98.1911 78.7429 124.568C78.7429 125.825 78.2629 127.014 77.3715 127.905ZM118.194 127.905C117.303 128.82 116.091 129.323 114.811 129.323H86.0115C84.7315 129.323 83.52 128.82 82.6286 127.905C81.7372 127.014 81.2572 125.825 81.2572 124.568C81.4629 98.1911 89.1429 80.454 100.411 80.454C111.68 80.454 119.36 98.1911 119.566 124.568C119.566 125.825 119.086 127.014 118.194 127.905ZM153.509 126.123C151.726 128.225 149.143 129.277 145.623 129.323H126.811C125.531 129.323 124.343 128.82 123.429 127.905C122.514 126.991 122.034 125.757 122.034 124.477C122.331 100.545 129.371 84.454 139.589 84.454C147.063 84.454 152.914 92.6597 155.634 106.9C157.12 116.317 156.411 122.603 153.463 126.1L153.509 126.123ZM80 58.1911C85.4857 58.1911 89.9429 53.734 89.9429 48.2483C89.9429 42.7625 85.4857 38.3054 80 38.3054C74.5143 38.3054 70.0572 42.7625 70.0572 48.2483C70.0572 53.734 74.5143 58.1911 80 58.1911ZM80 40.7968C84.1143 40.7968 87.4515 44.134 87.4515 48.2483C87.4515 52.3625 84.1143 55.6997 80 55.6997C75.8857 55.6997 72.5486 52.3625 72.5486 48.2483C72.5486 44.134 75.8857 40.7968 80 40.7968Z" fill="#4A4A4A" stroke="#4A4A4A" stroke-width="0.8"/>
<path d="M79.9999 56.454C84.494 56.454 88.1371 52.8108 88.1371 48.3168C88.1371 43.8228 84.494 40.1797 79.9999 40.1797C75.5059 40.1797 71.8628 43.8228 71.8628 48.3168C71.8628 52.8108 75.5059 56.454 79.9999 56.454Z" fill="#01C2CA"/>
</svg>
