<svg width="160" height="160" viewBox="0 0 160 160" fill="none" xmlns="http://www.w3.org/2000/svg">
<path d="M94.9712 85.4392H84.8455C81.6683 85.4392 79.0854 82.8563 79.0854 79.6792V67.4049C79.0854 61.5992 83.8169 56.8906 89.5997 56.8906H90.1712C95.9769 56.8906 100.685 61.6221 100.685 67.4049V79.6792C100.685 82.8563 98.1026 85.4392 94.9255 85.4392H94.9712ZM89.6226 59.0163C84.9826 59.0163 81.2112 62.7878 81.2112 67.4278V79.7021C81.2112 81.7135 82.8569 83.3363 84.8455 83.3363H94.9712C96.9826 83.3363 98.6055 81.6906 98.6055 79.7021V67.4278C98.6055 62.7878 94.834 59.0163 90.194 59.0163H89.6226Z" fill="#01C2CA" stroke="#01C2CA" stroke-width="2"/>
<path d="M111.131 81.5748H103.451C100.777 81.5748 98.6055 79.4033 98.6055 76.729V71.1519C98.6055 66.4662 103.245 60.0433 106.263 58.329C107.931 57.369 109.805 57.4148 111.543 58.4205C114.194 59.9748 115.977 63.5176 115.977 67.289V76.729C115.977 79.4033 113.805 81.5748 111.131 81.5748ZM108.8 59.7919C108.343 59.7919 107.84 59.9062 107.314 60.2033C104.823 61.5976 100.731 67.3119 100.731 71.1748V76.7519C100.731 78.2605 101.965 79.4719 103.451 79.4719H111.131C112.64 79.4719 113.851 78.2376 113.851 76.7519V67.3119C113.851 64.3176 112.457 61.4376 110.468 60.2719C110.034 60.0205 109.44 59.7919 108.777 59.7919H108.8Z" fill="#01C2CA" stroke="#01C2CA" stroke-width="2"/>
<path d="M123.954 79.2669H117.92C115.703 79.2669 113.897 77.3469 113.897 74.9697V70.1926C113.897 66.0097 117.6 60.5697 120 59.084C121.326 58.2611 122.811 58.2383 124.206 59.0154C126.491 60.2954 128.023 63.4497 128.023 66.8783V74.9697C128.023 77.3469 126.217 79.2669 124 79.2669H123.954ZM122.103 60.5697C121.76 60.5697 121.417 60.684 121.074 60.8897C119.154 62.0783 115.977 66.924 115.977 70.1926V74.9697C115.977 76.1811 116.846 77.164 117.897 77.164H123.931C124.983 77.164 125.851 76.1811 125.851 74.9697V66.8783C125.851 63.9297 124.48 61.6211 123.131 60.8668C122.788 60.684 122.446 60.5697 122.103 60.5697Z" fill="#01C2CA" stroke="#01C2CA" stroke-width="2"/>
<path d="M134.034 76.4581H129.28C127.405 76.4581 125.874 74.6981 125.874 72.5038V68.2523C125.874 64.7781 128.594 59.7952 130.743 58.2866C131.794 57.5552 132.983 57.4638 134.103 58.0581C136.068 59.0866 137.44 62.0581 137.44 65.3038V72.5266C137.44 74.6981 135.908 76.4809 134.034 76.4809V76.4581ZM132.571 59.7952C132.365 59.7952 132.137 59.8638 131.931 60.0238C130.445 61.0752 127.977 65.4409 127.977 68.2523V72.5038C127.977 73.5095 128.571 74.3323 129.257 74.3323H134.011C134.72 74.3323 135.291 73.4866 135.291 72.5038V65.2809C135.291 62.5381 134.148 60.4809 133.074 59.9095C132.891 59.8181 132.708 59.7723 132.548 59.7723L132.571 59.7952Z" fill="#01C2CA" stroke="#01C2CA" stroke-width="2"/>
<path d="M31.0399 76.1587H26.2856C24.4113 76.1587 22.8799 74.4216 22.8799 72.2501V65.1644C22.8799 62.0101 24.2513 59.0844 26.1942 58.0559C27.3142 57.4616 28.5256 57.5301 29.577 58.2616C31.7256 59.7473 34.4456 64.6616 34.4456 68.0673V72.2501C34.4456 74.3987 32.9142 76.1587 31.0399 76.1587ZM27.7256 59.793C27.5427 59.793 27.3599 59.8387 27.177 59.953C26.1256 60.5016 24.9827 62.5359 24.9827 65.1873V72.273C24.9827 73.233 25.577 74.0559 26.2627 74.0559H31.017C31.7256 74.0559 32.297 73.233 32.297 72.273V68.0901C32.297 65.3244 29.8285 61.0501 28.3427 60.0216C28.1142 59.8616 27.9085 59.793 27.6799 59.793H27.7256Z" fill="#01C2CA" stroke="#01C2CA" stroke-width="2"/>
<path d="M42.3999 79.5403H36.3656C34.1485 79.5403 32.3428 77.6203 32.3428 75.2431V67.1517C32.3428 63.7231 33.8742 60.5689 36.1599 59.2889C37.5542 58.5117 39.0399 58.5346 40.3656 59.3574C42.7656 60.8431 46.4685 66.2831 46.4685 70.466V75.2431C46.4685 77.6203 44.6628 79.5403 42.4456 79.5403H42.3999ZM38.1942 60.8431C37.8513 60.8431 37.5085 60.9346 37.1656 61.1403C35.8171 61.8946 34.4456 64.2031 34.4456 67.1517V75.2431C34.4456 76.4546 35.3142 77.4374 36.3656 77.4374H42.3999C43.4513 77.4374 44.3199 76.4546 44.3199 75.2431V70.466C44.3199 67.1746 41.1428 62.3517 39.2228 61.1631C38.8799 60.9574 38.5371 60.8431 38.1942 60.8431Z" fill="#01C2CA" stroke="#01C2CA" stroke-width="2"/>
<path d="M56.8455 81.5776H49.1655C46.4913 81.5776 44.3198 79.4062 44.3198 76.7319V67.2919C44.3198 63.5434 46.1027 59.9776 48.7541 58.4234C50.4913 57.4176 52.3655 57.3948 54.0341 58.3319C57.0513 60.0462 61.6913 66.4691 61.6913 71.1548V76.7319C61.6913 79.4062 59.5198 81.5776 56.8455 81.5776ZM51.497 59.7948C50.8341 59.7948 50.2398 60.0234 49.8055 60.2748C47.817 61.4405 46.4227 64.3205 46.4227 67.3148V76.7548C46.4227 78.2634 47.657 79.4748 49.1427 79.4748H56.8227C58.3313 79.4748 59.5427 78.2405 59.5427 76.7548V71.1776C59.5427 67.3148 55.4513 61.6005 52.9598 60.2062C52.4341 59.9091 51.9313 59.7948 51.4741 59.7948H51.497Z" fill="#01C2CA" stroke="#01C2CA" stroke-width="2"/>
<path d="M75.4511 85.4392H65.3254C62.1483 85.4392 59.5654 82.8563 59.5654 79.6792V67.4049C59.5654 61.5992 64.2969 56.8906 70.0797 56.8906H70.6511C76.4569 56.8906 81.1654 61.6221 81.1654 67.4049V79.6792C81.1654 82.8563 78.5826 85.4392 75.4054 85.4392H75.4511ZM70.1026 59.0163C65.4626 59.0163 61.6911 62.7878 61.6911 67.4278V79.7021C61.6911 81.7135 63.3369 83.3363 65.3254 83.3363H75.4511C77.4626 83.3363 79.0854 81.6906 79.0854 79.7021V67.4278C79.0854 62.7878 75.314 59.0163 70.674 59.0163H70.1026Z" fill="#01C2CA" stroke="#01C2CA" stroke-width="2"/>
<path d="M147.36 115.886H12.9372C7.15437 115.886 2.4458 111.178 2.4458 105.395V27.1321C2.4458 21.3492 7.15437 16.6406 12.9372 16.6406H147.36C153.143 16.6406 157.852 21.3492 157.852 27.1321V105.418C157.852 111.201 153.143 115.909 147.36 115.909V115.886ZM12.9372 18.7435C8.32009 18.7435 4.57152 22.4921 4.57152 27.1092V105.395C4.57152 110.012 8.32009 113.761 12.9372 113.761H147.36C151.977 113.761 155.726 110.012 155.726 105.395V27.1321C155.726 22.5149 151.977 18.7663 147.36 18.7663H12.9372V18.7435Z" fill="#4A4A4A" stroke="#4A4A4A" stroke-width="3"/>
<path d="M146.263 104.298H14.0343C13.4629 104.298 12.9829 103.818 12.9829 103.247V26.3327C12.9829 25.7613 13.4629 25.2812 14.0343 25.2812H146.263C146.834 25.2812 147.314 25.7613 147.314 26.3327V103.247C147.314 103.818 146.834 104.298 146.263 104.298ZM15.0858 102.196H145.211V27.3841H15.0858V102.196Z" fill="#4A4A4A" stroke="#4A4A4A" stroke-width="3"/>
<path d="M73.7832 107.312C74.8098 107.313 75.6377 108.14 75.6377 109.167C75.6376 110.194 74.8098 111.021 73.7832 111.021C72.7566 111.021 71.9288 110.194 71.9287 109.167C71.9287 108.14 72.7565 107.312 73.7832 107.312ZM73.7832 108.438C73.37 108.438 73.0314 108.776 73.0312 109.189C73.0312 109.603 73.3699 109.941 73.7832 109.941C74.257 109.941 74.5117 109.538 74.5117 109.189C74.5116 108.831 74.2405 108.484 73.8604 108.442L73.7832 108.438ZM73.8408 108.948C73.9511 108.974 74.0312 109.071 74.0312 109.189C74.0312 109.294 73.9691 109.382 73.8789 109.419C73.947 109.386 73.9941 109.32 74.0078 109.24L74.0117 109.189C74.0116 109.076 73.9328 108.978 73.8408 108.948ZM73.5312 109.189C73.5312 109.303 73.6107 109.4 73.7158 109.43C73.6463 109.415 73.5996 109.381 73.5752 109.354C73.5491 109.327 73.5264 109.288 73.5166 109.24L73.5117 109.189C73.5118 109.149 73.5251 109.091 73.5723 109.037C73.5996 109.006 73.6344 108.981 73.6729 108.964C73.5897 109.005 73.5313 109.092 73.5312 109.189Z" fill="#4A4A4A" stroke="#4A4A4A"/>
<path d="M86.5146 107.312C87.5413 107.313 88.3691 108.14 88.3691 109.167C88.369 110.194 87.5412 111.021 86.5146 111.021C85.488 111.021 84.6603 110.194 84.6602 109.167C84.6602 108.14 85.4879 107.312 86.5146 107.312ZM86.5146 108.438C86.1014 108.438 85.7628 108.776 85.7627 109.189C85.7627 109.603 86.1013 109.941 86.5146 109.941C86.9884 109.941 87.2432 109.538 87.2432 109.189C87.2431 108.831 86.972 108.484 86.5918 108.442L86.5146 108.438ZM86.5723 108.948C86.6825 108.974 86.7626 109.071 86.7627 109.189C86.7627 109.294 86.7005 109.382 86.6104 109.419C86.6784 109.386 86.7255 109.32 86.7393 109.24L86.7432 109.189C86.7431 109.076 86.6642 108.978 86.5723 108.948ZM86.2627 109.189C86.2627 109.303 86.3422 109.4 86.4473 109.43C86.3778 109.415 86.331 109.381 86.3066 109.354C86.2805 109.327 86.2578 109.288 86.248 109.24L86.2432 109.189C86.2432 109.149 86.2565 109.091 86.3037 109.037C86.331 109.006 86.3658 108.981 86.4043 108.964C86.3212 109.005 86.2628 109.092 86.2627 109.189Z" fill="#4A4A4A" stroke="#4A4A4A"/>
<path d="M99.269 107.312C100.296 107.313 101.124 108.14 101.124 109.167C101.123 110.194 100.296 111.021 99.269 111.021C98.2424 111.021 97.4147 110.194 97.4146 109.167C97.4146 108.14 98.2423 107.312 99.269 107.312ZM99.269 108.438C98.8542 108.438 98.6074 108.747 98.5522 109.058L98.5405 109.189L98.5542 109.332C98.619 109.659 98.9013 109.941 99.269 109.941C99.4811 109.941 99.6608 109.842 99.7798 109.73C99.903 109.614 100.02 109.428 100.02 109.189C100.02 108.802 99.7229 108.481 99.3452 108.442L99.269 108.438ZM99.52 109.189C99.5199 109.075 99.4404 108.978 99.3345 108.948C99.4046 108.963 99.4514 108.998 99.4761 109.024C99.5022 109.052 99.5258 109.091 99.5356 109.139L99.5405 109.189L99.5278 109.261C99.5185 109.287 99.5026 109.315 99.479 109.342C99.4385 109.388 99.3818 109.419 99.3208 109.432C99.4207 109.404 99.52 109.306 99.52 109.189ZM99.1929 108.951C99.0991 108.985 99.0406 109.08 99.0405 109.189L99.0454 109.24C99.0652 109.336 99.139 109.411 99.2212 109.434C99.1056 109.412 99.02 109.312 99.02 109.189C99.0201 109.089 99.0681 109.028 99.0942 109.003C99.1096 108.988 99.1417 108.965 99.1929 108.951Z" fill="#4A4A4A" stroke="#4A4A4A"/>
<path d="M61.0288 107.312C62.0554 107.313 62.8833 108.14 62.8833 109.167C62.8832 110.194 62.0554 111.021 61.0288 111.021C60.0022 111.021 59.1744 110.194 59.1743 109.167C59.1743 108.14 60.0021 107.312 61.0288 107.312ZM61.0288 108.438C60.614 108.438 60.3671 108.747 60.312 109.058L60.3003 109.189L60.314 109.332C60.3788 109.659 60.6611 109.941 61.0288 109.941C61.2409 109.941 61.4206 109.842 61.5396 109.73C61.6627 109.614 61.7798 109.428 61.7798 109.189C61.7797 108.802 61.4827 108.481 61.105 108.442L61.0288 108.438ZM61.2798 109.189C61.2797 109.075 61.2002 108.978 61.0942 108.948C61.1644 108.963 61.2111 108.998 61.2358 109.024C61.2619 109.052 61.2856 109.091 61.2954 109.139L61.3003 109.189L61.2876 109.261C61.2783 109.287 61.2624 109.315 61.2388 109.342C61.1983 109.388 61.1416 109.419 61.0806 109.432C61.1804 109.404 61.2798 109.306 61.2798 109.189ZM60.9526 108.951C60.8588 108.985 60.8004 109.08 60.8003 109.189L60.8052 109.24C60.825 109.336 60.8988 109.411 60.981 109.434C60.8654 109.412 60.7798 109.312 60.7798 109.189C60.7798 109.089 60.8279 109.028 60.854 109.003C60.8693 108.988 60.9014 108.965 60.9526 108.951Z" fill="#4A4A4A" stroke="#4A4A4A"/>
<path d="M86.1942 134.628C85.5999 134.628 85.1199 134.148 85.1199 133.553V116.57H73.0285V133.553C73.0285 134.148 72.5485 134.628 71.9542 134.628C71.3599 134.628 70.8799 134.148 70.8799 133.553V115.496C70.8799 114.902 71.3599 114.422 71.9542 114.422H86.1942C86.7885 114.422 87.2685 114.902 87.2685 115.496V133.553C87.2685 134.148 86.7885 134.628 86.1942 134.628Z" fill="#4A4A4A" stroke="#4A4A4A" stroke-width="3"/>
<path d="M101.143 143.107H57.0285C55.177 143.107 53.6685 141.598 53.6685 139.747V136.684C53.6685 134.833 55.177 133.324 57.0285 133.324H101.143C102.994 133.324 104.503 134.833 104.503 136.684V139.747C104.503 141.598 102.994 143.107 101.143 143.107ZM57.0285 135.45C56.3427 135.45 55.7942 135.998 55.7942 136.684V139.747C55.7942 140.433 56.3427 140.981 57.0285 140.981H101.143C101.828 140.981 102.377 140.433 102.377 139.747V136.684C102.377 135.998 101.828 135.45 101.143 135.45H57.0285Z" fill="#4A4A4A" stroke="#4A4A4A" stroke-width="3"/>
</svg>
