<svg width="160" height="160" viewBox="0 0 160 160" fill="none" xmlns="http://www.w3.org/2000/svg">
<path d="M76.1712 22.186C68.7019 22.186 64.0642 19.6219 59.5603 17.1693C55.9483 15.1849 52.5369 13.312 47.7432 12.7992C44.6439 12.4647 41.7008 12.5762 39.0475 13.1336C35.3909 13.8917 32.1133 15.5194 29.3485 17.9497C28.8803 18.351 28.9726 17.6375 28.5712 17.1693C28.1699 16.7011 27.4087 16.6565 27.877 16.2551C30.9316 13.5573 34.5436 11.7735 38.6016 10.9263C41.5001 10.3243 44.6439 10.1905 47.9884 10.5472C53.2281 11.1046 56.9962 13.1782 60.6529 15.1849C65.2013 17.6821 69.5046 20.0679 76.7509 19.9341C77.353 19.9341 77.8881 20.4246 77.8881 21.0266C77.8881 21.6509 77.3975 22.1637 76.7955 22.1637C76.5949 22.1637 76.3942 22.1637 76.1935 22.1637L76.1712 22.186Z" fill="#4A4A4A" stroke="#4A4A4A" stroke-width="3"/>
<path d="M52.1134 149.634C46.4501 149.634 41.8124 144.506 38.9585 135.03C38.2227 132.555 36.9964 128.787 35.4356 123.993C28.9473 103.926 17.7391 71.0184 15.9999 53.7163C15.933 53.092 17.6613 53.7832 18.2856 53.7163C18.91 53.6494 18.2188 54.2349 18.2856 54.8592C19.9802 71.9161 31.5114 104.618 37.5538 123.302C39.1145 128.096 40.3409 131.886 41.0766 134.383C42.6151 139.512 46.2048 147.984 52.7823 147.36C59.0031 146.758 60.0064 141.853 60.876 137.505C60.9652 137.104 61.032 136.702 61.1212 136.323C61.2773 135.61 61.4557 133.848 61.7009 131.619C63.0387 119.088 65.8258 93.0456 76.9964 92.8449C77.5984 92.8449 78.1112 93.3355 78.1112 93.9375C78.1112 94.5618 77.6207 95.0746 77.0187 95.0746C67.8325 95.253 64.9785 121.83 63.9083 131.842C63.663 134.227 63.4624 135.944 63.284 136.791C63.1948 137.17 63.1279 137.55 63.0387 137.951C62.1023 142.544 60.8314 148.832 52.9607 149.59C52.6485 149.612 52.3364 149.634 52.0242 149.634H52.1134Z" fill="#4A4A4A" stroke="#4A4A4A" stroke-width="3"/>
<path d="M135.213 34.2023C134.722 34.2023 134.276 33.8901 134.143 33.3773C131.177 22.9871 124.042 10.9693 106.785 12.7753C102.013 13.2881 98.4458 15.1387 94.7 17.1231C89.884 19.6649 84.8896 22.2736 77.0635 22.1621C76.4392 22.1621 75.9486 21.6493 75.9709 21.025C75.9709 20.423 76.4838 19.9325 77.0858 19.9325C84.3544 20.0663 89.0813 17.569 93.6521 15.161C97.4425 13.1766 101.344 11.103 106.562 10.5679C121.211 9.02947 131.779 16.9224 136.305 32.7753C136.484 33.3773 136.127 34.0016 135.525 34.1577C135.413 34.18 135.324 34.2023 135.213 34.2023Z" fill="#4A4A4A" stroke="#4A4A4A" stroke-width="3"/>
<path d="M102.437 149.632C102.125 149.632 101.812 149.632 101.5 149.588C93.6297 148.829 92.3588 142.542 91.4223 137.949C91.3331 137.547 91.2662 137.168 91.1771 136.789C90.9987 135.964 90.8203 134.225 90.5528 131.862C89.4825 121.851 86.6286 95.2509 77.4424 95.0948C76.8181 95.0948 76.3276 94.582 76.3499 93.9577C76.3499 93.3557 76.8627 92.8652 77.4647 92.8652C88.6352 93.0658 91.4223 119.13 92.7601 131.639C93.0054 133.868 93.1837 135.63 93.3398 136.343C93.429 136.722 93.4959 137.124 93.5851 137.525C94.4546 141.851 95.458 146.778 101.679 147.38C108.278 148.027 111.846 139.532 113.384 134.404C114.142 131.906 115.369 128.116 116.907 123.322C121.5 109.164 128.412 87.7816 132.604 70.368C132.738 69.766 133.362 69.3869 133.964 69.543C134.566 69.6991 134.945 70.3011 134.789 70.9031C130.575 88.3836 123.619 109.833 119.025 124.013C117.487 128.807 116.261 132.575 115.503 135.05C112.649 144.526 108.011 149.654 102.348 149.654L102.437 149.632Z" fill="#4A4A4A" stroke="#4A4A4A" stroke-width="3"/>
<path d="M123.428 77.7143C122.561 77.7143 121.656 77.4408 120.926 76.9167C119.648 75.9823 118.986 74.4327 119.215 72.8831C119.215 72.8603 119.215 72.8147 119.215 72.7919L121.862 61.3064C121.93 60.7594 121.748 60.1897 121.382 59.7795L113.305 53.3987C113.305 53.3987 113.236 53.3303 113.191 53.3075C112.095 52.1909 111.707 50.5729 112.186 49.0916C112.666 47.6103 113.898 46.5164 115.427 46.2202C115.472 46.2202 115.518 46.2202 115.586 46.2202L126.015 45.6961C126.54 45.5821 126.996 45.2403 127.27 44.7617L130.966 34.4156C130.966 34.4156 131.012 34.3245 131.035 34.2789C131.765 32.866 133.203 32 134.777 32C136.352 32 137.789 32.866 138.519 34.2789C138.519 34.3017 138.542 34.3245 138.542 34.3472L143.083 44.7389C143.357 45.2403 143.813 45.5821 144.361 45.6961L154.127 46.243C154.127 46.243 154.219 46.243 154.264 46.243C155.793 46.5392 157.003 47.5875 157.482 49.046C157.961 50.5273 157.641 52.0769 156.569 53.2164C156.569 53.2164 156.523 53.2619 156.501 53.2847L147.784 61.3975C147.396 61.8533 147.213 62.4458 147.327 63.0383L149.792 72.3589V72.4045C150.134 73.9997 149.541 75.6177 148.24 76.6204C146.939 77.6231 145.228 77.7827 143.768 77.0306C143.699 76.985 143.631 76.9622 143.585 76.9167L135.507 70.5358C135.005 70.3079 134.435 70.3079 133.956 70.5358L125.467 77.1218C125.467 77.1218 125.353 77.2129 125.284 77.2357C124.668 77.5548 124.029 77.6915 123.368 77.6915L123.428 77.7143ZM121.497 73.2477C121.405 73.9541 121.702 74.6378 122.272 75.048C122.843 75.4582 123.55 75.5266 124.166 75.2531L132.655 68.6671C132.655 68.6671 132.769 68.576 132.837 68.5532C134.047 67.9379 135.462 67.9379 136.671 68.5532C136.739 68.576 136.808 68.6216 136.854 68.6671L144.931 75.048C145.593 75.3442 146.301 75.2531 146.871 74.8201C147.464 74.3643 147.738 73.6579 147.578 72.9286L145.114 63.608V63.5625C144.84 62.2407 145.205 60.8278 146.141 59.8251C146.141 59.8251 146.186 59.7795 146.209 59.7567L154.926 51.6439C155.382 51.1198 155.542 50.4361 155.314 49.7752C155.109 49.1144 154.584 48.6586 153.922 48.4991L144.156 47.9521C144.156 47.9521 144.064 47.9521 144.019 47.9521C142.741 47.7015 141.646 46.9039 141.052 45.7416C141.052 45.7416 141.052 45.6961 141.029 45.6733L136.488 35.2816C136.146 34.6435 135.53 34.2789 134.8 34.2789C134.07 34.2789 133.476 34.6435 133.134 35.2588L129.437 45.6049C129.437 45.6049 129.392 45.6961 129.369 45.7416C128.776 46.9039 127.68 47.7015 126.403 47.9521C126.357 47.9521 126.288 47.9521 126.243 47.9521L115.815 48.4763C115.13 48.6358 114.628 49.1144 114.4 49.7752C114.195 50.4361 114.354 51.1426 114.811 51.6439L122.888 58.0248C122.888 58.0248 122.957 58.0931 123.003 58.1159C123.915 59.0503 124.349 60.3948 124.166 61.6938C124.166 61.7166 124.166 61.7621 124.166 61.7849L121.519 73.2705L121.497 73.2477Z" fill="#01C2CA" stroke="#01C2CA" stroke-width="3"/>
<path d="M13.6762 57.144C12.809 57.144 11.9419 56.8705 11.2117 56.3464C9.93388 55.412 9.27214 53.8624 9.50032 52.3127C9.50032 52.29 9.50032 52.2444 9.50032 52.2216L12.1473 40.7361C12.2158 40.1891 12.0332 39.6194 11.6681 39.2092L3.59026 32.8283C3.59026 32.8283 3.5218 32.76 3.47616 32.7372C2.38086 31.6205 1.99294 30.0025 2.47214 28.5213C2.95133 27.04 4.18355 25.9461 5.71241 25.6499C5.75804 25.6499 5.80368 25.6499 5.87214 25.6499L16.3003 25.1257C16.8252 25.0118 17.2815 24.67 17.5554 24.1914L21.252 13.8453C21.252 13.8453 21.2976 13.7541 21.3205 13.7086C22.0507 12.2957 23.4882 11.4297 25.0627 11.4297C26.6372 11.4297 28.0748 12.2957 28.805 13.7086C28.805 13.7314 28.805 13.7541 28.8278 13.7769L33.3688 24.1686C33.6426 24.67 34.099 25.0118 34.6466 25.1257L44.4131 25.6727C44.4131 25.6727 44.5043 25.6727 44.55 25.6727C46.0788 25.9689 47.2882 27.0172 47.7674 28.4985C48.2466 29.9797 47.9272 31.5294 46.8547 32.6688C46.8547 32.6688 46.809 32.7144 46.7862 32.7372L38.0694 40.85C37.6815 41.3058 37.499 41.8983 37.6131 42.4908L40.0775 51.8114C40.4198 53.475 39.8265 55.093 38.5258 56.0729C37.2251 57.0756 35.5137 57.2351 34.0533 56.4831C33.9849 56.4375 33.9164 56.4147 33.8708 56.3692L25.7929 49.9883C25.2909 49.7604 24.7205 49.7604 24.2413 49.9883L15.7527 56.5743C15.7527 56.5743 15.6386 56.6654 15.5701 56.6882C14.954 57.0072 14.3151 57.144 13.6533 57.144H13.6762ZM11.7822 52.6774C11.6909 53.3838 11.9876 54.0675 12.558 54.4777C13.1285 54.8879 13.8359 54.9562 14.452 54.6828L22.9406 48.0968C22.9406 48.0968 23.0547 48.0057 23.1231 47.9829C24.3325 47.3676 25.7473 47.3676 26.9567 47.9829C27.0251 48.0285 27.0936 48.0513 27.1392 48.0968L35.2171 54.4777C35.8788 54.7739 36.5862 54.6828 37.1567 54.2498C37.75 53.794 38.0238 53.0648 37.8641 52.3355L35.3996 43.0377V42.9921C35.1258 41.6476 35.4909 40.2575 36.4265 39.2548C36.4265 39.2548 36.4721 39.2092 36.4949 39.1864L45.2117 31.0736C45.6681 30.5495 45.8278 29.8658 45.5996 29.2049C45.3943 28.5441 44.8694 28.0883 44.2077 27.9288L34.4413 27.3818C34.4413 27.3818 34.35 27.3818 34.3043 27.3818C33.0265 27.1312 31.9312 26.3335 31.3379 25.1713C31.3379 25.1485 31.3379 25.1257 31.3151 25.103L26.7741 14.7113C26.4319 14.0732 25.8158 13.7086 25.0856 13.7086C24.3554 13.7086 23.7621 14.0732 23.4198 14.6885L19.7231 25.0346C19.7231 25.0346 19.6775 25.1257 19.6547 25.1713C19.0614 26.3335 17.9661 27.1312 16.6882 27.3818C16.6426 27.3818 16.597 27.3818 16.5285 27.3818L6.10032 27.906C5.41576 28.0655 4.91375 28.5441 4.68556 29.2049C4.48019 29.8658 4.63992 30.5495 5.0963 31.0736L13.1741 37.4545C13.1741 37.4545 13.2426 37.5228 13.2882 37.5456C14.201 38.48 14.6345 39.8245 14.452 41.1235C14.452 41.1462 14.452 41.1918 14.452 41.2146L11.805 52.7002L11.7822 52.6774Z" fill="#01C2CA" stroke="#01C2CA" stroke-width="3"/>
</svg>
