<svg width="160" height="160" viewBox="0 0 160 160" fill="none" xmlns="http://www.w3.org/2000/svg">
<path d="M155.555 52.0919C152.338 51.4102 147.735 53.7435 145.408 56.7584M145.408 56.7584C146.951 56.6798 148.52 56.8895 149.958 57.4663C153.541 58.8033 156.365 62.1329 156.836 65.9343C157.019 67.3762 156.836 68.8705 156.156 70.1289C155.476 71.4136 154.221 72.436 152.782 72.5933C151.03 72.8031 149.357 71.833 148.023 70.6533C144.911 67.8481 143.054 63.4175 144.048 59.3277C144.257 58.4363 144.728 57.5711 145.408 56.7584ZM145.408 56.7584C143.159 56.7846 140.91 57.4401 138.974 58.5936C137.353 59.5636 135.182 61.4512 134.188 63.2864" stroke="#4A4A4A" stroke-width="5" stroke-linecap="round" stroke-linejoin="round"/>
<path d="M114.335 45.6406C128.338 52.2009 138 66.4367 138 82.9543V95.9454C138 111.063 129.888 124.261 117.771 131.418V152.551C117.771 154.444 116.221 156 114.335 156H96.8702C94.9584 156 93.4341 154.444 93.4341 152.551V137.097H64.7828V152.551C64.7828 154.444 63.2327 156 61.3467 156H43.8821C41.9961 156 40.446 154.444 40.446 152.551V131.418C30.7319 125.662 23.5497 116.015 21.147 104.606H8.61694C6.60179 104.606 5 102.998 5 100.976V75.7197C5 73.749 6.60179 72.1154 8.61694 72.1154H21.6638C24.1181 63.0398 29.5952 55.2088 36.9324 49.7894L31.2745 33.7126C44.1921 30.575 51.7877 38.5875 53.932 42.4252C56.8514 41.751 58.0657 41.7769 61.2176 41.7769H65.6871" stroke="#4A4A4A" stroke-width="5" stroke-linecap="round" stroke-linejoin="round"/>
<path d="M41.2661 67.457V68.4895" stroke="#4A4A4A" stroke-width="5" stroke-linecap="round" stroke-linejoin="round"/>
<path d="M117.404 37.4256C120.083 22.9135 110.491 8.97713 95.9788 6.29794C81.4666 3.61875 67.5303 13.2113 64.8511 27.7234C62.1719 42.2356 71.7644 56.1719 86.2766 58.8511C100.789 61.5303 114.725 51.9378 117.404 37.4256Z" stroke="#01C2CA" stroke-width="5" stroke-linecap="round" stroke-linejoin="round"/>
<path d="M92.0855 32.3704H89.2164C86.3474 32.3704 84 30.023 84 27.1539C84 24.2849 86.3474 21.9375 89.2164 21.9375H92.0855C94.9545 21.9375 97.3019 24.2849 97.3019 27.1539" stroke="#01C2CA" stroke-width="5" stroke-linecap="round" stroke-linejoin="round"/>
<path d="M89.2428 32.3711H92.1118C94.9809 32.3711 97.3283 34.7185 97.3283 37.5875C97.3283 40.4566 94.9809 42.804 92.1118 42.804H89.2428C86.3738 42.804 84.0264 40.4566 84.0264 37.5875" stroke="#01C2CA" stroke-width="5" stroke-linecap="round" stroke-linejoin="round"/>
<path d="M90.5229 48V43" stroke="#01C2CA" stroke-width="5" stroke-linecap="round" stroke-linejoin="round"/>
<path d="M90.5229 22V17" stroke="#01C2CA" stroke-width="5" stroke-linecap="round" stroke-linejoin="round"/>
</svg>
