<svg width="160" height="160" viewBox="0 0 160 160" fill="none" xmlns="http://www.w3.org/2000/svg">
<path d="M123.04 4.75258C112.092 1.87258 104.343 3.56401 95.2687 6.05544C88.3202 7.95258 83.3373 8.63829 80.023 8.63829C76.7087 8.63829 71.703 7.95258 64.7773 6.05544C55.703 3.56401 47.9316 1.87258 36.983 4.75258C19.4973 9.34686 9.92015 28.6383 20.9601 67.1297C27.3144 89.2326 33.2573 107.153 38.2859 143.77C40.6401 160.913 55.7259 161.415 59.9087 143.221C63.0173 129.758 67.8859 99.4954 80.0002 99.4954C92.1144 99.4954 96.983 129.758 100.092 143.221C104.297 161.415 119.36 160.913 121.714 143.77C126.743 107.153 132.709 89.2326 139.04 67.1297C150.103 28.6154 140.503 9.32401 123.017 4.75258H123.04Z" stroke="#4A4A4A" stroke-width="5" stroke-linecap="round" stroke-linejoin="round"/>
<path d="M55.8174 64.9844C59.566 73.3729 68.7317 80.0015 80.0002 80.0015C91.2688 80.0015 100.457 73.3729 104.183 64.9844" stroke="#4A4A4A" stroke-width="5" stroke-linecap="round" stroke-linejoin="round"/>
<path d="M91.9316 31.793C93.8059 35.9758 98.3773 39.2901 104.023 39.2901C109.669 39.2901 114.24 35.9758 116.114 31.793" stroke="#4A4A4A" stroke-width="5" stroke-linecap="round" stroke-linejoin="round"/>
<path d="M43.8857 31.793C45.76 35.9758 50.3315 39.2901 55.9772 39.2901C61.6229 39.2901 66.1943 35.9758 68.0686 31.793" stroke="#4A4A4A" stroke-width="5" stroke-linecap="round" stroke-linejoin="round"/>
<path d="M46.5844 70.1641C47.4514 66.4905 45.1763 62.8097 41.5028 61.9426C37.8292 61.0756 34.1484 63.3507 33.2813 67.0243C32.4143 70.6978 34.6894 74.3787 38.363 75.2457C42.0365 76.1127 45.7174 73.8376 46.5844 70.1641Z" stroke="#01C2CA" stroke-width="5" stroke-linecap="round" stroke-linejoin="round"/>
<path d="M120.069 75.4264C123.843 75.4264 126.903 72.3666 126.903 68.5921C126.903 64.8176 123.843 61.7578 120.069 61.7578C116.294 61.7578 113.234 64.8176 113.234 68.5921C113.234 72.3666 116.294 75.4264 120.069 75.4264Z" stroke="#01C2CA" stroke-width="5" stroke-linecap="round" stroke-linejoin="round"/>
</svg>
