<svg width="24" height="24" viewBox="0 0 24 24" fill="none" xmlns="http://www.w3.org/2000/svg">
<path d="M11.7079 8.09474C9.55751 8.09474 7.80263 9.84962 7.80263 12C7.80263 14.1504 9.55751 15.9053 11.7079 15.9053C13.8583 15.9053 15.6132 14.1504 15.6132 12C15.6132 9.84962 13.8583 8.09474 11.7079 8.09474ZM23.4208 12C23.4208 10.3828 23.4354 8.78029 23.3446 7.16603C23.2538 5.29103 22.8261 3.62697 21.455 2.25588C20.081 0.881853 18.4198 0.457048 16.5448 0.366228C14.9276 0.275408 13.3251 0.290056 11.7108 0.290056C10.0936 0.290056 8.49111 0.275408 6.87685 0.366228C5.00185 0.457048 3.33779 0.884782 1.96669 2.25588C0.592668 3.6299 0.167864 5.29103 0.0770433 7.16603C-0.0137771 8.78322 0.000871419 10.3858 0.000871419 12C0.000871419 13.6143 -0.0137771 15.2197 0.0770433 16.834C0.167864 18.709 0.595598 20.3731 1.96669 21.7442C3.34072 23.1182 5.00185 23.543 6.87685 23.6338C8.49404 23.7246 10.0966 23.71 11.7108 23.71C13.328 23.71 14.9306 23.7246 16.5448 23.6338C18.4198 23.543 20.0839 23.1152 21.455 21.7442C22.829 20.3701 23.2538 18.709 23.3446 16.834C23.4384 15.2197 23.4208 13.6172 23.4208 12ZM11.7079 18.0088C8.38271 18.0088 5.69911 15.3252 5.69911 12C5.69911 8.67482 8.38271 5.99123 11.7079 5.99123C15.0331 5.99123 17.7167 8.67482 17.7167 12C17.7167 15.3252 15.0331 18.0088 11.7079 18.0088ZM17.9628 7.14845C17.1864 7.14845 16.5595 6.5215 16.5595 5.74513C16.5595 4.96877 17.1864 4.34181 17.9628 4.34181C18.7392 4.34181 19.3661 4.96877 19.3661 5.74513C19.3663 5.92948 19.3302 6.11207 19.2598 6.28243C19.1893 6.4528 19.086 6.60759 18.9556 6.73795C18.8252 6.8683 18.6705 6.97166 18.5001 7.0421C18.3297 7.11255 18.1471 7.14868 17.9628 7.14845Z" fill="#B0B0B0"/>
</svg>
