<svg width="25" height="25" viewBox="0 0 25 25" fill="none" xmlns="http://www.w3.org/2000/svg">
<path fill-rule="evenodd" clip-rule="evenodd" d="M15.9839 10.9274C15.9839 11.8514 15.6168 12.7375 14.9635 13.3909C14.3101 14.0442 13.424 14.4113 12.5 14.4113C11.576 14.4113 10.6899 14.0442 10.0365 13.3909C9.38316 12.7375 9.01611 11.8514 9.01611 10.9274C9.01611 10.0034 9.38316 9.1173 10.0365 8.46394C10.6899 7.81059 11.576 7.44354 12.5 7.44354C13.424 7.44354 14.3101 7.81059 14.9635 8.46394C15.6168 9.1173 15.9839 10.0034 15.9839 10.9274ZM14.5903 10.9274C14.5901 11.482 14.3696 12.0138 13.9774 12.4058C13.5851 12.7978 13.0532 13.0179 12.4986 13.0177C11.944 13.0176 11.4122 12.7971 11.0202 12.4048C10.6282 12.0125 10.4081 11.4806 10.4083 10.926C10.4085 10.3714 10.6289 9.83966 11.0212 9.44765C11.4135 9.05564 11.9454 8.83551 12.5 8.8357C13.0546 8.83588 13.5863 9.05636 13.9784 9.44864C14.3704 9.84091 14.5905 10.3728 14.5903 10.9274Z" fill="#252525"/>
<path fill-rule="evenodd" clip-rule="evenodd" d="M20.629 11.1839C20.629 17.4548 13.8548 23.7258 12.5 23.7258C11.1452 23.7258 4.37097 17.4548 4.37097 11.1839C4.37097 6.57122 8.01549 2.82257 12.5 2.82257C16.9845 2.82257 20.629 6.57122 20.629 11.1839ZM19.2742 11.1839C19.2742 13.8455 17.811 16.6744 16.0226 18.932C15.146 20.0385 14.2342 20.9526 13.489 21.5658C13.1787 21.8294 12.8474 22.0658 12.4986 22.2723L12.4282 22.2333C12.1052 22.035 11.7972 21.8119 11.5069 21.5658C10.759 20.9443 9.854 20.0329 8.97336 18.932C7.18497 16.6744 5.72175 13.8455 5.72175 11.1839C5.72175 7.33767 8.75659 4.21612 12.4959 4.21612C16.2353 4.21612 19.2701 7.33767 19.2701 11.1839H19.2742Z" fill="#252525"/>
</svg>
