<svg width="160" height="160" viewBox="0 0 160 160" fill="none" xmlns="http://www.w3.org/2000/svg">
<path d="M135.03 109.887C134.15 107.027 133.33 104.307 132.61 101.767C131.13 96.5473 128.09 93.0773 124.05 91.9773C120.77 91.0873 117.17 91.9173 113.84 94.2773C121.23 75.7973 120.52 60.6073 111.68 52.9873C105.48 47.6473 96.2399 47.4473 89.2299 52.5073C83.1299 56.9173 78.7999 56.9173 72.7199 52.5073C65.6999 47.4273 56.4599 47.6273 50.2699 52.9873C41.4399 60.6073 40.7199 75.7773 48.1099 94.2773C44.7999 91.9373 41.1899 91.0773 37.8999 91.9773C33.8699 93.0673 30.8399 96.5473 29.3399 101.767C28.6199 104.307 27.7999 107.027 26.9199 109.887C23.5699 120.947 19.4199 134.677 18.1099 148.277L20.8399 148.557C22.1099 135.237 26.0599 122.217 29.5299 110.727C30.4099 107.847 31.2299 105.127 31.9699 102.547C33.1799 98.2973 35.5399 95.5173 38.5999 94.6873C41.7199 93.8373 45.3399 95.1473 48.5399 98.2573C49.9799 99.6673 51.2899 100.997 52.5599 102.287C60.7299 110.607 66.1099 116.097 80.9799 116.097C95.8499 116.097 101.23 110.597 109.4 102.287C110.67 100.997 111.97 99.6673 113.42 98.2573C116.62 95.1373 120.24 93.8273 123.36 94.6873C126.42 95.5173 128.78 98.3173 129.99 102.547C130.73 105.107 131.55 107.827 132.43 110.707C135.92 122.197 139.86 135.247 141.12 148.557L143.85 148.277C142.54 134.677 138.39 120.927 135.04 109.867L135.06 109.887H135.03ZM108.79 98.9273C108.32 99.3873 107.87 99.8573 107.43 100.297C99.4799 108.397 94.6799 113.277 80.9599 113.277C67.2399 113.277 62.4399 108.397 54.4899 100.297C54.0399 99.8373 53.5899 99.3873 53.1299 98.9273C43.6999 79.0173 43.2899 62.6573 52.0199 55.1173C57.2599 50.5873 65.1199 50.4773 71.0999 54.7973C78.0999 59.8573 83.8099 59.8573 90.8099 54.7973C96.7899 50.4673 104.65 50.5873 109.89 55.1173C118.62 62.6573 118.21 79.0173 108.78 98.9273H108.8H108.79Z" fill="#4A4A4A" stroke="#4A4A4A" stroke-width="0.8"/>
<path d="M21.5601 54.2972C21.8501 54.4572 22.1601 54.5372 22.5001 54.5372C22.7701 54.5372 23.0501 54.4772 23.3001 54.3572L36.0801 48.3672L34.9301 45.8272L25.2501 50.3672C28.2701 44.0372 32.3001 38.2972 37.2301 33.2572C42.9601 27.4272 49.6201 22.8572 57.0301 19.6672C64.7101 16.3572 72.8701 14.6872 81.2901 14.6872C89.7101 14.6872 97.8701 16.3772 105.55 19.6672C112.97 22.8672 119.64 27.4472 125.35 33.2572C130.28 38.2772 134.31 44.0372 137.33 50.3672L127.65 45.8272L126.5 48.3672L139.28 54.3572C139.53 54.4772 139.81 54.5372 140.08 54.5372C140.41 54.5372 140.72 54.4572 141.01 54.2972C141.54 53.9972 141.91 53.4472 141.98 52.8272L143.81 38.6172L141.08 38.2572L139.72 48.9372C136.56 42.4072 132.41 36.4772 127.31 31.2772C121.33 25.1872 114.37 20.4172 106.64 17.0672C98.6101 13.6172 90.1001 11.8672 81.3101 11.8672C72.5201 11.8672 64.0101 13.6172 55.9801 17.0672C48.2201 20.3972 41.2701 25.1872 35.3101 31.2772C30.2001 36.4772 26.0301 42.4072 22.9001 48.9372L21.5401 38.2572L18.8101 38.6172L20.6401 52.8272C20.7201 53.4472 21.0901 53.9972 21.6101 54.2972H21.5701H21.5601Z" fill="#01C2CA" stroke="#01C2CA" stroke-width="0.8"/>
</svg>
