<svg width="160" height="160" viewBox="0 0 160 160" fill="none" xmlns="http://www.w3.org/2000/svg">
<g clip-path="url(#clip0_723_1562)">
<path d="M85.1675 52.6919C92.2441 48.0428 96.6305 43.1398 95.6526 34.7013C95.2803 31.5 93.4921 25.1673 97.5272 25.201C101.243 25.232 98.2614 31.456 99.0322 34.8438C99.2813 35.9446 99.0716 37.1464 99.0716 39.752C102.894 36.2398 105.807 33.5125 108.786 30.8577C109.963 29.8087 111.25 27.5657 112.936 29.3502C114.528 31.0364 112.333 32.391 111.216 33.5203C108.206 36.561 105.071 39.4748 101.583 42.8264C105.663 44.5565 109.428 43.5283 113.018 43.9712C114.478 44.1499 116.56 43.7873 116.395 46.0588C116.25 48.0039 114.326 47.4341 113.067 47.4756C110.128 47.5714 107.079 48.0169 104.263 47.4315C97.0527 45.9319 92.9861 49.8506 89.006 55.3053C93.222 56.5745 97.2441 56.1134 101.222 56.0202C102.711 55.9865 104.528 54.979 105.451 56.7609C106.599 58.978 104.187 59.5841 103.094 60.6771C100.089 63.6764 96.9793 66.5695 93.1434 70.2371C100.354 71.1643 106.03 71.7497 110.645 66.2872C113.17 63.2983 116.434 60.9154 119.407 58.3072C120.422 57.4162 121.644 56.2222 122.928 57.7245C124.032 59.0169 122.624 59.8587 121.859 60.6901C118.959 63.837 116.025 66.9529 112.477 70.7499C117.147 70.7499 121.646 70.7266 126.143 70.7655C127.47 70.7758 129.342 70.4495 129.488 72.2781C129.677 74.648 127.501 74.1843 126.093 74.2128C121.633 74.3009 117.168 74.2465 112.706 74.2465C112.491 74.7075 112.276 75.166 112.061 75.627C114.89 78.2197 117.758 80.7735 120.529 83.4257C121.434 84.2934 123.214 85.2517 121.948 86.7255C120.519 88.3883 119.129 86.9275 117.991 85.9225C115.54 83.7598 112.761 81.8199 110.815 79.2687C106.468 73.5601 100.844 73.5524 93.6258 75.9275C97.0501 78.9268 100.506 81.8924 103.88 84.9435C104.714 85.6972 105.878 86.6089 105.078 87.9557C104.473 88.9736 103.298 88.7121 102.252 88.7043C97.7842 88.6654 93.3164 88.6887 88.0805 88.6887C92.8052 95.1587 97.2572 99.9115 105.506 98.1658C108.162 97.6038 111.025 97.9301 113.794 97.9664C115.259 97.9871 117.318 97.6219 117.234 99.9348C117.163 101.883 115.304 101.515 114.003 101.533C110.207 101.587 106.41 101.554 101.581 101.554C104.876 106.001 108.537 108.951 111.827 112.23C112.839 113.235 114.769 114.211 113.264 115.97C111.366 118.19 110.162 115.887 109.171 114.833C106.355 111.839 103.754 108.648 101.069 105.535C100.511 105.866 99.9551 106.2 99.3967 106.532C99.3967 110.316 99.3914 114.103 99.3993 117.887C99.4019 119.404 99.7742 121.347 97.5404 121.404C95.2199 121.461 95.6735 119.412 95.6132 117.962C95.5215 115.745 95.1728 113.46 95.5503 111.31C96.995 103.087 92.9205 97.8006 86.0878 93.483C84.963 97.7203 85.7758 101.927 85.4612 106.05C85.3537 107.475 86.1193 109.414 84.1712 110.075C82.3909 110.678 81.3657 109.07 80.3405 107.982C77.7658 105.244 75.2802 102.421 72.147 100.031C70.7522 104.973 69.4831 109.316 73.8198 113.25C76.9845 116.12 79.5985 119.596 82.3437 122.891C83.4397 124.206 85.9619 125.608 84.0112 127.509C81.8481 129.617 80.7968 126.75 79.6641 125.6C77.0343 122.932 74.6169 120.06 71.7249 116.84C70.0967 121.717 70.92 126.146 70.5581 130.464C70.448 131.769 70.6814 133.533 68.6992 133.5C66.696 133.463 66.9792 131.632 66.9556 130.376C66.8743 125.833 66.9242 121.29 65.7312 116.286C62.7999 119.733 59.9 123.209 56.9189 126.613C56.072 127.579 55.1124 129.109 53.5445 127.788C52.0919 126.561 53.1276 125.261 53.9954 124.212C56.8402 120.772 59.4281 117.037 62.7212 114.071C67.0421 110.179 67.1732 105.695 66.0982 99.7017C62.8156 102.802 60.0075 105.452 57.2021 108.104C56.0773 109.168 54.9551 110.562 53.2325 110.026C51.2293 109.402 51.89 107.482 51.8638 106.045C51.7878 101.997 51.8376 97.9456 51.8376 92.8562C46.4522 97.1945 41.2922 100.152 42.126 107.428C42.5508 111.134 42.1653 114.937 42.0578 118.692C42.0211 119.982 42.2571 121.798 40.3169 121.824C38.471 121.849 38.4134 120.181 38.4081 118.796C38.3871 114.734 38.4002 110.673 38.4002 106.612C37.8837 106.226 37.3672 105.838 36.8507 105.452C33.9718 108.702 31.1533 112.007 28.18 115.172C27.2335 116.18 26.0012 117.936 24.3966 116.027C23.1747 114.574 24.5277 113.53 25.4873 112.574C28.8407 109.233 32.2151 105.913 36.5728 101.608C31.4338 101.608 27.5376 101.647 23.6441 101.587C22.1784 101.567 20.0914 101.942 20.2434 99.6318C20.3588 97.8809 22.1312 97.9741 23.5287 97.9923C26.1244 98.0259 28.8119 97.6556 31.2975 98.1917C39.2157 99.8986 43.943 95.7544 48.3452 89.3622C43.9246 88.4893 39.7401 88.6654 35.5738 88.6162C34.4438 88.6033 32.986 89.1031 32.3777 87.6734C31.8087 86.337 32.8837 85.2828 33.7201 84.5887C37.0237 81.8484 40.4716 79.2816 43.2298 75.9171C36.5964 73.7414 31.3027 73.5472 26.9739 78.6444C24.546 81.5039 21.5098 83.8634 18.6991 86.3965C17.7841 87.2202 16.6357 87.9454 15.5371 86.7436C14.3729 85.4693 15.5528 84.5472 16.3315 83.6977C18.9482 80.8512 21.6121 78.0461 24.9944 74.4408C19.9498 74.4408 15.5345 74.4926 11.1191 74.4097C9.6797 74.3838 7.5507 74.806 7.50088 72.5915C7.45106 70.3459 9.52763 70.7188 11.0116 70.7033C15.4794 70.6618 19.9472 70.6878 25.0363 70.6878C22.9047 66.3338 18.9272 64.368 16.2004 61.3039C15.2487 60.2342 13.1826 59.3173 14.8711 57.6312C16.439 56.0668 17.6923 57.8073 18.7883 58.7553C21.5203 61.1174 24.5748 63.2672 26.7668 66.0619C31.0929 71.5787 36.6724 71.0011 43.3976 70.3795C40.0075 66.7224 37.1208 63.6713 34.3153 60.5476C33.4553 59.5893 31.6907 58.846 32.3567 57.2686C33.138 55.4245 35.0337 56.2662 36.4941 56.2507C40.4139 56.2119 44.3363 56.2378 49.1737 56.2378C44.5251 50.0941 40.2592 46.0277 32.7762 47.4212C29.7663 47.9806 26.5649 47.5792 23.45 47.5377C22.2728 47.5222 20.8045 47.5558 20.8229 45.849C20.8386 44.282 22.1548 43.979 23.4081 43.966C27.5114 43.9194 31.6147 43.9479 37.1575 43.9479C32.729 39.6768 29.2078 36.359 25.7914 32.9401C24.8003 31.9481 22.9728 30.7463 24.643 29.1741C26.2031 27.7081 27.5586 29.2156 28.568 30.3215C31.3184 33.3312 33.9508 36.447 36.6304 39.5214C37.1863 39.1744 37.7395 38.8299 38.2954 38.4828C38.2954 35.1753 38.1984 31.8652 38.3399 28.5629C38.4029 27.1047 37.2702 24.6208 40.0914 24.6778C42.5875 24.727 41.9766 27.1072 42.105 28.6794C42.2728 30.7204 42.5796 32.8365 42.2204 34.8153C40.7521 42.9274 44.9341 47.9677 52.029 52.363C52.029 47.4704 51.9713 42.9792 52.0631 38.4906C52.0919 37.0738 51.1454 35.0924 53.0804 34.4009C54.7978 33.787 55.7757 35.5612 56.8953 36.548C59.8502 39.1485 62.7579 41.7955 66.1769 44.8673C66.8927 40.2959 67.556 36.4678 64.2288 32.8209C60.7626 29.0239 57.716 24.8487 54.5618 20.7797C53.7857 19.7799 52.362 18.6118 53.8014 17.2391C55.587 15.5348 56.6226 17.3997 57.5455 18.4331C60.2776 21.4946 62.8654 24.6803 66.1297 28.5499C67.1654 23.476 66.4863 19.1247 66.7563 14.8459C66.8638 13.1623 65.996 10.4091 68.8014 10.5023C71.6357 10.5981 70.5136 13.3721 70.5765 15.022C70.7312 19.2412 70.6289 23.4708 71.7197 28.2417C74.5592 24.9704 77.3751 21.6785 80.254 18.4435C81.1166 17.4748 82.0395 15.8016 83.5865 16.9257C85.4035 18.244 83.9902 19.6712 83.0464 20.8393C80.2383 24.3074 77.5482 27.8972 74.47 31.1167C70.7915 34.9655 70.1255 39.3039 71.2634 45.1911C74.2944 42.3239 76.7537 39.8012 79.4386 37.54C80.9121 36.302 82.0972 33.585 84.2813 34.5226C86.1822 35.3411 85.0521 37.9234 85.1151 39.7028C85.2593 43.7692 85.1596 47.8459 85.1596 52.6945L85.1675 52.6919ZM81.1822 41.4666C70.1727 47.043 69.2498 56.2792 71.2084 66.6783C81.3605 60.9206 83.361 52.0781 81.1822 41.4666ZM56.5387 41.5288C54.1921 54.505 56.8061 61.0216 66.3657 66.2173C69.0427 55.8492 66.9032 47.1725 56.5387 41.5288ZM81.4313 103.351C83.9745 92.6671 80.7233 84.6586 71.4076 79.2324C68.513 89.8258 71.7826 97.8317 81.4313 103.351ZM66.2293 79.0071C56.9792 85.0031 52.8287 92.7862 55.9566 103.429C66.1297 98.0518 68.7647 89.6445 66.2293 79.0071ZM63.3924 74.7671C52.9283 72.7961 44.3887 74.7982 39.5329 84.8684C52.0342 87.0259 56.1533 85.288 63.3924 74.7671ZM63.3819 70.0946C54.6876 59.4417 49.8397 57.5173 39.8633 60.5347C45.0678 69.5455 52.7474 72.7935 63.3819 70.0946ZM73.8591 74.6298C79.5749 83.6303 86.8377 88.1655 97.501 84.7596C90.8046 74.749 87.2414 73.1794 73.8591 74.6298ZM74.6536 70.5453C87.7868 71.4829 92.5902 69.2114 97.0553 60.2809C86.8744 57.2945 79.6903 61.1433 74.6536 70.5453Z" fill="#4A4A4A" stroke="#4A4A4A" stroke-width="2"/>
<path d="M136.585 125.622C137.6 127.671 138.398 129.135 139.047 130.661C139.405 131.504 140.707 132.601 139.327 133.317C138.079 133.965 137.918 132.348 137.467 131.62C136.593 130.21 135.86 128.712 134.951 127.035C133.894 128.328 133.71 129.79 133.286 131.136C133.075 131.804 132.77 132.324 132.001 132.095C131.221 131.862 131.261 131.225 131.479 130.582C131.792 129.664 131.969 128.672 132.439 127.842C133.945 125.178 133.314 122.844 131.425 120.439C130.468 121.652 130.11 123.062 129.627 124.403C129.367 125.127 129.003 125.849 128.16 125.542C127.25 125.21 127.639 124.341 127.873 123.724C128.406 122.323 129.068 120.971 129.609 119.575C129.856 118.937 130.439 118.299 130.128 117.59C129.609 116.401 129.288 114.717 128.002 114.457C127.032 114.262 126.84 115.964 126.256 116.789C126.004 117.146 125.868 117.58 125.652 117.966C125.382 118.448 124.981 118.949 124.412 118.714C123.675 118.41 123.85 117.703 124.097 117.128C124.305 116.645 124.562 116.156 124.907 115.764C127.572 112.732 126.76 109.87 124.483 106.952C120.834 110.976 118.324 115.193 120.64 120.839C121.013 121.745 121.917 123.513 120.537 123.85C118.78 124.278 119.193 122.194 118.895 121.16C118.56 120.002 118.594 118.737 118.398 116.876C116.022 119.236 114.745 120.96 115.779 123.652C116.339 125.111 116.478 126.734 116.79 128.287C116.901 128.837 116.837 129.403 116.239 129.62C115.407 129.921 115.133 129.269 114.966 128.671C114.545 127.156 114.177 125.627 113.603 123.372C112.329 125.34 111.402 126.857 110.379 128.31C109.92 128.963 109.564 130.327 108.508 129.682C107.236 128.905 108.5 127.989 108.927 127.256C109.839 125.69 110.877 124.197 111.863 122.675C111.699 122.329 111.538 121.983 111.374 121.637C109.714 122.196 108.064 122.79 106.388 123.295C105.822 123.465 105.07 123.59 104.885 122.724C104.707 121.892 105.38 121.674 105.99 121.532C107.718 121.131 109.437 120.586 111.188 120.434C114.046 120.185 114.803 118.11 115.815 116.185C115.668 115.766 115.521 115.346 115.374 114.927C113.626 115.565 111.89 116.243 110.121 116.82C109.447 117.039 108.554 117.084 108.425 116.132C108.316 115.345 109.159 115.254 109.731 115.111C110.848 114.831 111.985 114.63 113.108 114.375C118.023 113.258 120.592 110.827 122.214 105.769C119.048 105.028 116.292 105.333 114.642 108.633C114.411 109.096 113.999 109.474 113.656 109.879C113.199 110.416 112.717 111.124 111.937 110.451C111.246 109.855 111.954 109.36 112.267 108.881C112.934 107.858 113.949 107.061 114.333 105.75C111.174 104.306 109.045 105.694 107.07 108.049C106.271 109.001 105.292 111.16 103.999 110.013C102.802 108.954 105.038 108.025 105.691 107.001C106.06 106.425 106.52 105.906 107.069 105.195C104.567 104.449 102.474 104.101 100.765 106.426C99.9902 107.479 98.9106 108.317 97.9479 109.227C97.4703 109.679 96.8475 109.987 96.3056 109.46C95.7449 108.914 96.0884 108.305 96.554 107.842C97.5465 106.858 98.5693 105.906 99.8889 104.646C97.5064 104.487 95.5232 104.385 93.5468 104.207C92.8981 104.148 91.9399 104.24 91.9758 103.225C92.0111 102.226 92.8928 102.323 93.5934 102.344C95.6187 102.402 97.643 102.487 99.8814 102.569C99.4395 100.924 98.3131 99.9299 97.5365 98.7328C97.1227 98.0973 96.3113 97.3452 97.1637 96.6884C98.191 95.8968 98.6992 96.977 99.2049 97.6551C99.8344 98.5011 100.58 99.3111 100.997 100.259C102.184 102.945 104.267 103.299 107.147 102.684C106.195 101.276 105.332 100.009 104.482 98.7331C104.173 98.2696 103.975 97.7521 104.527 97.3396C105.063 96.9393 105.557 97.2029 105.901 97.6461C106.656 98.6163 107.527 99.5446 108.06 100.631C109.373 103.309 111.468 103.856 114.412 103.095C113.543 101.621 112.785 100.164 111.864 98.8163C110.56 96.9063 111.387 96.3352 113.297 96.3554C115.055 96.3741 116.812 96.4384 118.647 96.4838C118.166 93.9735 116.836 92.6476 114.332 92.3905C112.758 92.2282 111.212 91.7807 109.661 91.4251C109.012 91.2755 108.079 91.2693 108.379 90.2034C108.64 89.2763 109.397 89.4515 110.127 89.5988C111.835 89.945 113.553 90.2478 115.356 90.5859C114.717 87.2249 113.144 85.2327 109.688 85.246C108.991 85.2488 108.278 85.0805 107.602 84.8897C106.758 84.6514 105.22 84.9138 105.587 83.4742C105.911 82.1982 107.232 82.8853 108.112 83.011C109.328 83.1862 110.519 83.5162 111.845 83.8062C111.489 81.5757 110.102 80.018 109.232 78.2213C108.935 77.6058 108.447 76.8659 109.27 76.3449C110.341 75.6664 110.64 76.6996 111 77.3342C111.952 79.0067 112.842 80.7148 113.872 82.6182C114.951 81.1317 115.273 79.5918 115.851 78.1695C116.079 77.6119 116.262 76.8756 117.101 77.1284C118.057 77.4153 117.862 78.184 117.618 78.866C117.262 79.8611 116.991 80.9265 116.431 81.8031C114.675 84.5539 115.413 86.9055 117.428 89.3077C118.536 88.0195 118.653 86.3884 119.354 85.0367C119.626 84.5137 119.828 83.7252 120.617 83.9753C121.58 84.2802 121.247 85.079 121.015 85.7419C120.606 86.9069 120.309 88.1394 119.708 89.2015C118.436 91.4564 118.741 93.3429 120.888 95.2323C121.55 94.2108 122.18 93.2089 122.843 92.2296C123.07 91.893 123.298 91.3932 123.852 91.716C124.282 91.9657 124.394 92.4267 124.247 92.8617C124.05 93.4405 123.842 94.0566 123.478 94.5332C121.892 96.6027 122.362 98.5197 123.518 100.617C124.415 102.245 124.72 102.483 126.097 100.858C128.978 97.4604 128.943 93.9469 127.665 90.0415C127.319 88.9856 126.22 87.0646 128.017 86.6682C129.596 86.3216 129.127 88.4557 129.549 89.4872C129.999 90.5877 129.807 91.9003 130.67 93.0873C132.287 91.3351 133.433 89.6574 132.623 87.1806C132.051 85.4318 131.742 83.5936 131.362 81.7863C131.222 81.12 130.986 80.2785 132.021 80.0943C133.021 79.9172 133.162 80.7716 133.277 81.4406C133.57 83.1626 133.785 84.8967 134.083 86.9837C136.038 85.8663 136.335 84.3472 137.292 83.4107C138.261 82.4581 138.479 79.7757 140.14 80.7753C141.532 81.6127 139.43 83.0799 138.883 84.2462C138.336 85.4105 137.506 86.4438 136.471 88.0424C138.71 87.667 140.388 87.3537 142.08 87.1216C142.644 87.0443 143.418 86.8604 143.568 87.7565C143.707 88.5921 143.027 88.7804 142.421 88.9218C140.953 89.2614 139.489 89.6902 137.999 89.8473C135.211 90.1419 133.526 91.6491 132.472 94.6199C134.45 94.2418 136.217 93.8782 137.996 93.5796C138.647 93.4699 139.55 93.1398 139.727 94.1631C139.891 95.113 138.99 95.2398 138.328 95.4137C137.558 95.6161 136.765 95.8514 135.981 95.8589C130.706 95.909 128.376 99.4353 126.431 103.782C129.732 104.216 132.883 104.922 134.574 100.969C134.884 100.242 135.641 99.1687 136.603 99.8464C137.553 100.515 136.403 101.161 136.082 101.806C135.665 102.647 134.038 103.619 135.177 104.301C136.211 104.922 138.032 105.389 139.34 104.031C140.689 102.629 142.037 101.227 143.415 99.8526C143.857 99.4112 144.486 98.9424 145.046 99.4454C145.77 100.098 145.187 100.7 144.667 101.216C143.613 102.261 142.56 103.308 141.248 104.611C144.219 105.164 146.705 105.816 148.489 102.856C149.152 101.755 150.321 100.953 151.251 100.007C151.729 99.5204 152.292 99.1955 152.86 99.7228C153.439 100.258 153.147 100.822 152.655 101.318C151.609 102.374 150.579 103.446 149.118 104.949C151.574 105.177 153.519 105.358 155.464 105.538C156.099 105.597 156.782 105.668 156.806 106.489C156.836 107.56 155.966 107.451 155.288 107.462C153.275 107.496 151.262 106.982 149.038 107.425C150.044 108.843 150.973 110.11 151.851 111.413C152.213 111.949 152.4 112.583 151.664 113.004C151.102 113.326 150.657 113.046 150.319 112.567C149.66 111.633 148.872 110.763 148.364 109.754C146.872 106.786 144.45 106.435 141.344 107.151C142.465 108.66 143.517 110.034 144.521 111.444C144.929 112.017 145.368 112.723 144.533 113.276C143.736 113.805 143.245 113.236 142.815 112.615C142.013 111.459 141.102 110.369 140.401 109.156C139.134 106.964 137.468 105.739 134.665 106.555C134.93 108.289 136.246 109.669 136.861 111.347C137.495 113.074 137.245 113.886 135.23 113.622C133.655 113.417 132.075 113.241 130.488 113.052C131.192 117.049 131.377 117.14 135.875 118.046C137.215 118.316 139.807 117.911 139.512 119.577C139.2 121.33 136.989 119.688 135.62 119.82C135.033 119.877 134.424 119.693 133.679 119.599C134.151 122.238 135.334 123.833 138.124 123.968C139.254 124.023 140.364 124.454 141.483 124.717C142.226 124.892 143.367 124.846 143.154 125.935C142.899 127.241 141.775 126.624 140.972 126.486C139.685 126.265 138.407 125.985 136.587 125.621L136.585 125.622ZM122.61 103.595C120.67 97.9662 120.458 97.8425 114.124 98.4539C115.998 103.565 116.311 103.758 122.61 103.595ZM134.61 111.443C132.313 105.857 131.8 105.511 126.695 106.113C128.857 112.184 128.274 111.289 134.61 111.443Z" fill="#01C2CA" stroke="#01C2CA" stroke-width="2"/>
</g>
<defs>
<clipPath id="clip0_723_1562">
<rect width="160" height="160" fill="white"/>
</clipPath>
</defs>
</svg>
