<svg width="160" height="160" viewBox="0 0 160 160" fill="none" xmlns="http://www.w3.org/2000/svg">
<g clip-path="url(#clip0_723_3749)">
<path d="M15.4514 121.79C15.4514 121.79 16.1007 119.11 13.783 117.98C13.257 117.733 12.5748 117.56 11.7119 117.518C7.06005 117.254 7.56961 121.625 7.56961 121.625C7.56961 121.625 6.05736 122.12 4.7588 123.316C3.77255 124.198 2.90137 125.485 2.90137 127.233C2.90137 128.066 3.0904 128.981 3.53421 130.02C3.53421 130.02 3.79721 130.581 4.4054 131.249C5.61355 132.577 7.34771 133.286 9.13117 133.286H25.1577C26.9494 133.286 28.6918 132.535 29.826 131.142C30.541 130.259 31.0916 129.055 31.067 127.439C31.0012 124.231 28.3795 123.019 26.8837 122.59C26.8343 121.584 26.6042 119.522 25.5851 117.741C24.6153 116.017 22.914 114.549 19.947 114.5C16.9965 114.533 15.0158 115.96 13.783 117.972" stroke="#01C2CA" stroke-width="4" stroke-linecap="round" stroke-linejoin="round"/>
<path d="M78.9722 121.453C101.773 121.453 120.256 103.097 120.256 80.4531C120.256 57.8095 101.773 39.4531 78.9722 39.4531C56.1718 39.4531 37.6885 57.8095 37.6885 80.4531C37.6885 103.097 56.1718 121.453 78.9722 121.453Z" stroke="#4A4A4A" stroke-width="5" stroke-linecap="round" stroke-linejoin="round"/>
<path d="M77.5346 143.934L67.5426 135.4C66.9924 134.927 66.247 134.758 65.5371 134.945L52.8475 138.289C51.7915 138.566 50.6911 138.031 50.2563 137.032L44.9586 124.976C44.6658 124.307 44.0624 123.826 43.3524 123.692L30.4765 121.168C29.4116 120.963 28.6485 120 28.6839 118.912L29.0921 105.733C29.1188 105.002 28.7816 104.315 28.2048 103.878L17.6892 95.9956C16.8196 95.3446 16.5445 94.1408 17.0503 93.1778L23.1289 81.4964C23.4661 80.8455 23.4661 80.0786 23.1289 79.4277L17.0503 67.7463C16.5445 66.7744 16.8196 65.5795 17.6892 64.9285L28.2048 57.0458C28.7816 56.6089 29.1188 55.9134 29.0921 55.1911L28.6839 42.0117C28.6485 40.9149 29.4116 39.9607 30.4765 39.7556L43.3524 37.2321C44.0624 37.0894 44.6658 36.6079 44.9586 35.9391L50.2563 23.8833C50.7 22.8846 51.8004 22.3495 52.8475 22.626L65.5371 25.9699C66.2382 26.1571 66.9836 25.9877 67.5426 25.5151L77.5346 16.9815C78.3599 16.277 79.5845 16.277 80.4097 16.9815L90.4017 25.5151C90.9519 25.9877 91.6973 26.1571 92.4072 25.9699L105.097 22.626C106.153 22.3495 107.253 22.8846 107.688 23.8833L112.986 35.9391C113.279 36.6079 113.882 37.0894 114.592 37.2232L127.468 39.7467C128.533 39.9518 129.296 40.9149 129.26 42.0027L128.852 55.1822C128.826 55.9134 129.163 56.6 129.74 57.0369L140.255 64.9196C141.125 65.5705 141.4 66.7744 140.894 67.7374L134.815 79.4188C134.478 80.0697 134.478 80.8366 134.815 81.4875L140.894 93.1689C141.4 94.1408 141.125 95.3357 140.255 95.9867L129.74 103.869C129.163 104.306 128.826 105.002 128.852 105.724L129.26 118.904C129.296 120 128.533 120.954 127.468 121.16L114.592 123.683C113.882 123.826 113.279 124.307 112.986 124.967L107.688 137.023C107.244 138.022 106.144 138.557 105.097 138.28L92.4072 134.936C91.7062 134.749 90.9608 134.919 90.4017 135.391L80.4009 143.925C79.5756 144.629 78.351 144.629 77.5257 143.925L77.5346 143.934Z" stroke="#4A4A4A" stroke-width="5" stroke-linecap="round" stroke-linejoin="round"/>
<path d="M132.929 137.965C132.929 137.965 133.893 134.11 130.454 132.484C129.673 132.129 128.665 131.88 127.38 131.817C120.48 131.44 121.239 137.724 121.239 137.724C121.239 137.724 118.99 138.433 117.07 140.152C115.602 141.422 114.317 143.268 114.317 145.789C114.317 146.989 114.595 148.309 115.259 149.8C115.259 149.8 115.646 150.609 116.552 151.568C118.341 153.471 120.911 154.5 123.561 154.5H147.335C149.993 154.5 152.577 153.421 154.257 151.419C155.323 150.148 156.141 148.416 156.097 146.101C156.002 141.486 152.11 139.754 149.891 139.129C149.825 137.681 149.482 134.72 147.963 132.157C146.517 129.687 143.998 127.571 139.603 127.5C135.229 127.543 132.294 129.594 130.461 132.491" stroke="#01C2CA" stroke-width="4" stroke-linecap="round" stroke-linejoin="round"/>
</g>
<defs>
<clipPath id="clip0_723_3749">
<rect width="160" height="160" fill="white"/>
</clipPath>
</defs>
</svg>
