<svg width="160" height="160" viewBox="0 0 160 160" fill="none" xmlns="http://www.w3.org/2000/svg">
<g clip-path="url(#clip0_723_7501)">
<path d="M128.175 50.1367C128.524 49.7499 129.184 49.7952 129.458 50.2744C133.299 57.0084 136.881 62.0284 139.635 66.4785C142.313 70.8061 144.236 74.633 144.997 79.1172L145.067 79.5537C146.593 89.7421 140.139 99.6885 128.777 99.6885C117.416 99.6885 110.962 89.7421 112.487 79.5537C113.195 74.8796 115.155 70.9459 117.92 66.4785C120.674 62.0284 124.255 57.0084 128.097 50.2744L128.175 50.1367Z" fill="#01C2CA" stroke="#4A4A4A" stroke-width="0.8"/>
<path d="M157.806 86.5134C156.526 79.8391 154.56 74.3763 151.977 70.262L149.874 71.5877C152.274 75.382 154.172 80.7077 155.36 86.9477C156.846 96.342 156.137 102.582 153.189 106.079C151.406 108.182 148.846 109.233 145.349 109.256H126.629C124.732 109.256 123.086 108.205 122.309 106.536C122.012 105.873 121.349 105.462 120.64 105.462C119.909 105.462 119.269 105.873 118.972 106.536C118.217 108.205 116.572 109.256 114.652 109.256H85.9887C84.7087 109.256 83.5201 108.753 82.6287 107.862C81.7373 106.971 81.2573 105.782 81.2573 104.525C81.463 78.262 89.1201 60.6163 100.32 60.6163C103.909 60.6163 107.132 62.3763 109.943 65.8506L111.886 64.2963C108.594 60.2049 104.709 58.1477 100.343 58.1477C93.7373 58.1477 88.2058 62.9249 84.343 71.9534C82.4001 76.4791 80.9601 81.9191 80.023 88.022C79.0858 81.8963 77.6458 76.4791 75.703 71.9534C71.8401 62.9249 66.3087 58.1477 59.703 58.1477C53.0973 58.1477 47.5659 62.9249 43.703 71.9534C41.7144 76.6163 40.2287 82.2163 39.2916 88.5477C36.5716 72.1134 29.8059 62.1477 20.6401 62.1477C11.4744 62.1477 5.18871 71.0391 2.19443 86.6049C0.594428 96.7534 1.48586 103.656 4.91443 107.725C7.15443 110.376 10.423 111.748 14.6516 111.793H33.3716C35.3144 111.793 37.143 111.039 38.4916 109.645C38.8116 109.325 39.0859 108.982 39.3373 108.616C39.5887 108.982 39.863 109.325 40.183 109.668C41.5544 111.039 43.383 111.816 45.3259 111.816H73.9887C75.9316 111.816 77.7601 111.062 79.1316 109.668C79.4516 109.348 79.7259 109.005 79.9773 108.639C80.2287 109.005 80.503 109.348 80.823 109.668C82.1944 111.039 84.023 111.816 85.9659 111.816H114.629C117.097 111.816 119.314 110.651 120.617 108.708C121.943 110.651 124.137 111.816 126.606 111.816H145.349C149.577 111.771 152.846 110.399 155.086 107.748C158.514 103.679 159.406 96.7763 157.806 86.582V86.5134ZM36.7316 107.862C35.8401 108.776 34.6516 109.256 33.3716 109.256H14.6744C11.1544 109.211 8.59443 108.159 6.81157 106.079C3.863 102.582 3.15443 96.342 4.64014 86.9934C7.36014 72.7763 13.1887 64.6163 20.6173 64.6163C30.7887 64.6163 37.8059 80.6163 38.103 104.456C38.103 105.736 37.623 106.971 36.7316 107.885V107.862ZM77.3944 107.862C76.503 108.776 75.2916 109.256 74.0344 109.256H45.3716C44.0916 109.256 42.903 108.753 42.0116 107.862C41.1201 106.971 40.6401 105.782 40.6401 104.525C40.8459 78.262 48.503 60.6163 59.703 60.6163C70.903 60.6163 78.583 78.262 78.7658 104.525C78.7658 105.782 78.2859 106.971 77.3944 107.862ZM127.36 90.9477L128.183 88.5934C124.732 87.4049 123.017 84.2506 123.749 80.3649C124.389 76.9591 126.263 73.7591 128.069 70.6734C128.503 69.942 128.937 69.2106 129.349 68.4791L127.177 67.2449C126.766 67.9534 126.354 68.6849 125.92 69.3934C124 72.662 122.012 76.0449 121.303 79.8849C120.343 84.982 122.72 89.3249 127.36 90.9249V90.9477ZM115.177 95.3363C118.514 99.222 123.337 101.371 128.754 101.371C134.172 101.371 138.994 99.222 142.332 95.3591C145.989 91.1306 147.566 85.2792 146.674 79.3591C145.669 72.6849 142.217 67.4049 137.852 60.7306C135.749 57.5077 133.372 53.8734 130.88 49.5077C130.446 48.7306 129.646 48.2734 128.754 48.2734C127.863 48.2734 127.063 48.7306 126.629 49.5077C124.137 53.8734 121.76 57.5077 119.657 60.7306C115.292 67.4049 111.84 72.6849 110.834 79.3591C109.943 85.302 111.52 91.1306 115.177 95.3591V95.3363ZM113.303 79.702C114.217 73.5763 117.372 68.7306 121.737 62.0563C123.84 58.8334 126.24 55.1763 128.754 50.7877C131.269 55.1763 133.646 58.8334 135.772 62.0563C140.137 68.7306 143.292 73.5534 144.229 79.702C145.006 84.9134 143.634 90.0334 140.457 93.7134C137.554 97.0963 133.509 98.8791 128.754 98.8791C124 98.8791 119.954 97.0963 117.052 93.7134C113.874 90.0334 112.503 84.9134 113.303 79.702Z" fill="#4A4A4A" stroke="#4A4A4A" stroke-width="0.8"/>
</g>
<defs>
<clipPath id="clip0_723_7501">
<rect width="160" height="160" fill="white"/>
</clipPath>
</defs>
</svg>
