<svg width="160" height="160" viewBox="0 0 160 160" fill="none" xmlns="http://www.w3.org/2000/svg">
<path d="M111.932 84.0442C111.474 84.0442 111.04 83.9071 110.652 83.6328C109.92 83.13 109.554 82.2385 109.669 81.3471C109.669 81.3242 109.669 81.3014 109.669 81.2785L110.72 76.4557C110.72 76.4557 110.72 76.3414 110.674 76.2728L107.497 73.6214C107.497 73.6214 107.429 73.5528 107.406 73.53C106.812 72.89 106.629 71.9985 106.903 71.1757C107.177 70.3528 107.817 69.7814 108.64 69.6214C108.686 69.6214 108.732 69.6214 108.8 69.6214L112.869 69.4157C112.869 69.4157 112.914 69.3928 112.937 69.37L114.4 65.05C114.4 65.05 114.423 64.9585 114.446 64.9128C114.834 64.1128 115.612 63.6328 116.48 63.6328C117.349 63.6328 118.126 64.1357 118.514 64.9128C118.514 64.9128 118.514 64.9585 118.537 64.9814L120.343 69.3471C120.343 69.3471 120.389 69.4157 120.412 69.4157L124.229 69.6442C124.229 69.6442 124.32 69.6442 124.366 69.6442C125.166 69.8042 125.806 70.3757 126.08 71.1757C126.354 71.9757 126.172 72.89 125.623 73.53L125.577 73.5757L122.126 76.9585C122.126 76.9585 122.057 77.0957 122.08 77.1871L123.063 81.0728C123.269 82.0328 122.903 82.9471 122.172 83.4957C121.463 84.0214 120.549 84.09 119.794 83.6785C119.726 83.6557 119.68 83.61 119.612 83.5642L116.48 80.9357L113.166 83.6557C113.166 83.6557 113.052 83.7471 113.006 83.77C112.663 83.9528 112.32 84.0442 111.954 84.0442H111.932ZM111.772 81.6671C111.772 81.8042 111.84 81.8728 111.863 81.8957C111.886 81.8957 111.909 81.9185 111.932 81.9185L115.246 79.1985C115.246 79.1985 115.36 79.1071 115.406 79.0842C116.069 78.7185 116.846 78.7414 117.509 79.0842C117.577 79.1071 117.623 79.1528 117.692 79.1985L120.823 81.8271C120.823 81.8271 120.869 81.8271 120.892 81.8042C120.937 81.7814 121.006 81.69 120.983 81.53L120 77.6442C119.84 76.8671 120.046 76.1128 120.526 75.5414L120.572 75.4957L124.023 72.1128C124.023 72.1128 124.069 71.9071 124.046 71.8614C124.046 71.8157 124 71.77 123.954 71.7242L120.137 71.4957C120.137 71.4957 120.046 71.4957 120 71.4957C119.292 71.3585 118.72 70.9014 118.4 70.2614C118.4 70.2614 118.4 70.2157 118.377 70.1928L116.572 65.8271C116.572 65.8271 116.389 65.7128 116.32 65.8271L114.857 70.1471C114.857 70.1471 114.834 70.2385 114.812 70.2842C114.492 70.9242 113.897 71.3814 113.212 71.5185C113.166 71.5185 113.12 71.5185 113.052 71.5185L108.96 71.7242C108.96 71.7242 108.869 71.8157 108.869 71.8614C108.869 71.9071 108.823 72.0214 108.892 72.1128L112.069 74.7642C112.069 74.7642 112.137 74.8328 112.16 74.8557C112.64 75.3814 112.869 76.09 112.754 76.8214C112.754 76.8442 112.754 76.8671 112.754 76.89L111.703 81.7128L111.772 81.6671Z" fill="#01C2CA" stroke="#01C2CA"/>
<path d="M54.2856 84.044C43.6342 84.044 36.9599 81.6668 35.0627 79.3126C27.4284 69.7811 33.0056 41.2326 38.8799 31.7926C44.4113 22.8783 51.6799 21.324 56.7999 21.5754C66.5599 22.0554 70.4227 27.7697 73.8056 34.1011C75.657 37.5754 78.9256 47.5411 80.2742 57.2783C81.4856 66.0554 81.4856 77.3468 74.7427 81.3468C71.6113 83.1983 62.217 84.044 54.2856 84.044ZM36.7084 77.9868C37.9199 79.5183 43.7713 81.9411 54.2856 81.9411C63.177 81.9411 71.337 80.9354 73.6684 79.5411C84.1142 73.3468 75.7713 42.2383 71.9542 35.084C68.7542 29.0954 65.3942 24.0897 56.7084 23.6554C52.137 23.4268 45.6684 24.844 40.6856 32.8897C35.2227 41.6897 29.737 69.2326 36.7313 77.9868H36.7084Z" fill="#4A4A4A" stroke="#4A4A4A" stroke-width="3"/>
<path d="M83.2684 79.7011C82.9484 79.7011 82.6513 79.564 82.4455 79.3126C74.8113 69.7811 80.3884 41.2326 86.2627 31.7926C91.7941 22.8783 99.0627 21.324 104.183 21.5754C113.943 22.0554 117.806 27.7697 121.188 34.1011C122.286 36.1583 124.091 40.9583 125.623 47.0154C125.76 47.5868 125.417 48.1583 124.868 48.2954C124.297 48.4326 123.726 48.0897 123.588 47.5411C122.103 41.644 120.366 37.0497 119.337 35.1068C116.137 29.1183 112.777 24.1126 104.091 23.6783C99.5198 23.4497 93.0513 24.8668 88.0684 32.9126C82.6055 41.7126 77.1198 69.2554 84.1141 78.0097C84.4798 78.4668 84.4113 79.1297 83.9541 79.4954C83.7713 79.6554 83.5198 79.724 83.2913 79.724L83.2684 79.7011Z" fill="#4A4A4A" stroke="#4A4A4A" stroke-width="3"/>
<path d="M106.034 100.458C95.3827 100.458 88.7084 98.0809 86.8113 95.7266C79.177 86.1952 84.7541 57.6466 90.6284 48.2066C96.1598 39.2923 103.428 37.738 108.548 37.9895C118.308 38.4695 122.171 44.1838 125.554 50.5152C127.406 53.9895 130.674 63.9552 132.023 73.6923C133.234 82.4695 133.234 93.7609 126.491 97.7609C123.36 99.6123 113.966 100.458 106.034 100.458ZM88.457 94.4009C89.6684 95.9323 95.5198 98.3552 106.034 98.3552C114.926 98.3552 123.086 97.3495 125.417 95.9552C135.863 89.7609 127.52 58.6523 123.703 51.498C120.503 45.5095 117.143 40.5038 108.457 40.0695C103.908 39.8409 97.417 41.258 92.4341 49.3038C86.9713 58.1038 81.4856 85.6466 88.4798 94.4009H88.457Z" fill="#4A4A4A" stroke="#4A4A4A" stroke-width="3"/>
<path d="M139.886 77.6918C137.372 77.6918 134.56 77.4861 131.475 77.0518C130.903 76.9603 130.492 76.4346 130.583 75.8632C130.675 75.2918 131.2 74.8803 131.772 74.9718C141.532 76.3203 148.389 75.4289 152.16 72.3203C154.332 70.5375 155.452 68.0461 155.612 64.7546C156.229 52.4346 154.057 31.7946 145.623 28.9146C143.589 28.2289 141.6 28.3889 139.566 29.3946C132.892 32.7318 127.52 44.6175 125.623 50.4461C125.44 50.9946 124.846 51.2918 124.297 51.1089C123.749 50.9261 123.452 50.3318 123.635 49.7832C123.863 49.0518 129.532 32.0461 138.652 27.4975C141.189 26.2403 143.772 26.0346 146.332 26.9032C159.269 31.3146 157.76 64.5032 157.76 64.8461C157.577 68.7089 156.137 71.7718 153.532 73.9203C150.492 76.4346 146.012 77.6918 139.932 77.6918H139.886Z" fill="#4A4A4A" stroke="#4A4A4A" stroke-width="3"/>
<path d="M20.1827 77.7132C15.2912 77.7132 10.1484 76.8903 6.62839 74.0332C3.9541 71.8617 2.49125 68.7989 2.30839 64.8674C1.80553 54.856 3.99982 27.1532 15.497 26.376C27.2912 25.576 32.5712 39.8617 34.8341 45.9417C35.017 46.4446 35.177 46.8789 35.3141 47.2446C35.5198 47.7932 35.2684 48.3874 34.7198 48.616C34.1712 48.8217 33.577 48.5703 33.3484 48.0217C33.2112 47.656 33.0284 47.1989 32.8455 46.696C30.7655 41.0503 25.8512 27.7932 15.6341 28.5017C6.37696 29.1189 3.88553 54.3532 4.41125 64.776C4.57125 68.1132 5.73696 70.6274 7.9541 72.4103C14.0341 77.3246 26.6055 75.2903 31.337 74.5132L32.2055 74.376C32.777 74.2846 33.3255 74.6732 33.417 75.2446C33.5084 75.816 33.1198 76.3646 32.5484 76.456L31.6798 76.5932C29.0512 77.0274 24.7312 77.7132 20.2055 77.7132H20.1827Z" fill="#4A4A4A" stroke="#4A4A4A" stroke-width="3"/>
<path d="M146.08 138.447C145.943 138.447 145.783 138.424 145.646 138.355C136.229 134.173 126.903 129.533 117.92 124.504C115.086 122.927 112.594 121.418 110.811 119.041C108.937 116.55 108.183 113.487 107.52 110.767L102.103 88.7555C101.966 88.1841 102.309 87.6126 102.88 87.4755C103.451 87.3383 104.023 87.6812 104.16 88.2526L109.577 110.264C110.194 112.778 110.903 115.635 112.503 117.761C114.034 119.818 116.343 121.19 118.949 122.653C127.886 127.635 137.166 132.253 146.514 136.413C147.04 136.641 147.291 137.281 147.04 137.807C146.857 138.195 146.491 138.424 146.08 138.424V138.447Z" fill="#4A4A4A" stroke="#4A4A4A" stroke-width="3"/>
<path d="M146.08 138.447C145.897 138.447 145.692 138.401 145.532 138.287C137.212 133.098 128.983 127.43 121.12 121.441C118.652 119.567 116.48 117.784 115.017 115.224C113.486 112.527 111.566 102.058 111.2 99.4982C111.109 98.9268 111.52 98.3782 112.092 98.3096C112.663 98.2182 113.212 98.6296 113.28 99.201C113.783 102.607 115.657 112.092 116.846 114.195C118.103 116.412 120.115 118.035 122.4 119.772C130.217 125.715 138.4 131.338 146.652 136.504C147.155 136.801 147.292 137.464 146.995 137.944C146.789 138.264 146.446 138.447 146.103 138.447H146.08Z" fill="#4A4A4A" stroke="#4A4A4A" stroke-width="3"/>
<path d="M71.1542 94.6297C70.7885 94.6297 70.4457 94.4468 70.2628 94.1268C69.9657 93.6239 70.1257 92.9839 70.6285 92.6868L77.6 88.4811C78.1028 88.1839 78.7428 88.3439 79.04 88.8468C79.3371 89.3496 79.1771 89.9896 78.6742 90.2868L71.7028 94.4925C71.5428 94.6068 71.3371 94.6525 71.1542 94.6525V94.6297Z" fill="#01C2CA" stroke="#01C2CA"/>
<path d="M76.2743 102.516C76.0457 102.516 75.7943 102.447 75.6114 102.264C75.1543 101.899 75.1086 101.236 75.4743 100.779L80.8229 94.2872C81.1886 93.8301 81.8514 93.7843 82.3086 94.1501C82.7657 94.5158 82.8114 95.1786 82.4457 95.6358L77.0971 102.127C76.8914 102.379 76.5943 102.516 76.2743 102.516Z" fill="#01C2CA" stroke="#01C2CA"/>
<path d="M149.12 92.7775C148.937 92.7775 148.754 92.7318 148.572 92.6175L141.6 88.4118C141.097 88.1146 140.937 87.4746 141.234 86.9718C141.532 86.4689 142.172 86.3089 142.674 86.6061L149.646 90.8118C150.149 91.1089 150.309 91.7489 150.012 92.2518C149.806 92.5718 149.463 92.7547 149.12 92.7547V92.7775Z" fill="#01C2CA" stroke="#01C2CA"/>
<path d="M144 100.665C143.703 100.665 143.406 100.527 143.177 100.276L137.829 93.7846C137.463 93.3274 137.532 92.6646 137.966 92.2989C138.423 91.9332 139.086 92.0017 139.452 92.436L144.8 98.9274C145.166 99.3846 145.097 100.047 144.663 100.413C144.457 100.573 144.229 100.665 144 100.665Z" fill="#01C2CA" stroke="#01C2CA"/>
</svg>
