<svg width="160" height="160" viewBox="0 0 160 160" fill="none" xmlns="http://www.w3.org/2000/svg">
<g clip-path="url(#clip0_723_7802)">
<path d="M90.9896 146.996C90.7303 146.996 90.471 146.927 90.2417 146.798C81.4154 141.697 73.9356 136.864 67.3932 132.011C66.7349 131.516 66.5953 130.585 67.084 129.931C67.5727 129.278 68.5201 129.139 69.1784 129.624C75.4515 134.269 82.5922 138.904 90.9996 143.787C152.444 108.053 153.003 81.7084 153.013 25.0076C150.789 25.1165 148.605 25.1661 146.52 25.1661C124.43 25.1661 105.76 19.184 91.0096 7.39814C74.8431 20.323 53.9992 26.2357 28.9965 25.0076C28.9965 46.8461 29.0863 64.2079 32.7464 79.3711C32.9359 80.1733 32.4473 80.9755 31.6394 81.1637C30.8416 81.3519 30.0238 80.8666 29.8343 80.0643C25.9946 64.198 25.9946 46.2122 25.9946 23.4328C25.9946 23.0268 26.1642 22.6306 26.4634 22.3533C26.7626 22.076 27.1715 21.9274 27.5804 21.9571C53.0019 23.5022 74.0153 17.5795 90.0422 4.33778C90.6007 3.8822 91.3985 3.8822 91.957 4.33778C106.298 16.193 124.659 22.2047 146.51 22.2047C149.033 22.2047 151.686 22.1255 154.409 21.9571C154.818 21.9373 155.227 22.076 155.526 22.3632C155.825 22.6405 155.995 23.0367 155.995 23.4427C155.995 80.8369 155.995 109.648 91.7476 146.788C91.5182 146.927 91.2589 146.986 90.9996 146.986L90.9896 146.996Z" fill="#4A4A4A" stroke="#4A4A4A" stroke-width="2"/>
<path d="M90.9946 121.996C90.7347 121.996 90.4748 121.927 90.2448 121.798C85.9858 119.343 82.0868 116.898 78.6576 114.533C77.9777 114.068 77.8078 113.137 78.2877 112.464C78.7575 111.791 79.6973 111.633 80.3772 112.098C83.5364 114.285 87.1056 116.532 90.9946 118.799C129.435 96.4287 129.985 79.8193 129.995 44.4625C128.726 44.5219 127.536 44.5417 126.386 44.5417C112.35 44.5417 100.452 40.7902 90.9946 33.3863C80.7571 41.4039 67.6502 45.1158 51.9939 44.4625C51.9939 58.9537 52.0939 70.505 54.9332 80.4528C55.1532 81.2447 54.6933 82.0662 53.8935 82.284C53.0937 82.5117 52.2638 82.0465 52.0439 81.2546C48.9946 70.5545 48.9946 58.3499 48.9946 42.8887C48.9946 42.4828 49.1646 42.0869 49.4645 41.8097C49.7644 41.5326 50.1644 41.3742 50.5843 41.4138C66.6504 42.3937 79.9273 38.6621 90.0349 30.3376C90.5947 29.8823 91.3945 29.8823 91.9544 30.3376C101.012 37.791 112.599 41.5722 126.386 41.5722C127.936 41.5722 129.585 41.5227 131.405 41.4138C131.825 41.394 132.225 41.5326 132.525 41.8196C132.825 42.0968 132.995 42.4927 132.995 42.8986C132.995 79.6016 132.995 98.0224 91.7444 121.798C91.5145 121.937 91.2546 121.996 90.9946 121.996Z" fill="#4A4A4A" stroke="#4A4A4A" stroke-width="2"/>
<path d="M56.5651 157C55.1151 157 53.8351 156.611 52.7351 155.844C52.3351 155.565 52.0951 155.107 52.0951 154.619V137.463C52.0951 132.192 47.7851 127.898 42.4951 127.898C37.2051 127.898 32.8951 132.192 32.8951 137.463V154.609C32.8951 155.097 32.6651 155.545 32.2651 155.824C31.1751 156.601 29.8851 156.99 28.4251 156.99C20.8251 156.99 16.2851 147.117 16.2851 130.588C16.2851 126.703 14.1151 124.72 11.3751 122.209C7.64512 118.802 2.99512 114.558 2.99512 104.196C2.99512 88.8932 12.3551 79 26.8251 79C32.3251 79 34.9751 80.7336 37.1151 82.1284C38.7651 83.2044 40.0751 84.0612 42.4951 84.0612C44.9151 84.0612 46.2151 83.2044 47.8651 82.1284C49.9951 80.7336 52.6551 79 58.1551 79C72.6351 79 81.9951 88.8932 81.9951 104.196C81.9951 114.568 77.3451 118.802 73.6051 122.219C70.8551 124.72 68.6851 126.703 68.6851 130.588C68.6851 147.117 64.1451 156.99 56.5451 156.99L56.5651 157ZM55.1051 153.752C55.5351 153.931 56.0251 154.011 56.5751 154.011C63.3151 154.011 65.7151 141.398 65.7151 130.598C65.7151 125.397 68.7051 122.668 71.6051 120.017C75.2451 116.69 79.0151 113.253 79.0151 104.206C79.0151 90.5072 71.0251 81.9989 58.1751 81.9989C53.5751 81.9989 51.5251 83.3439 49.5351 84.639C47.7151 85.8346 45.8351 87.06 42.5151 87.06C39.1951 87.06 37.3151 85.8246 35.4951 84.639C33.5051 83.3439 31.4551 81.9989 26.8551 81.9989C14.0051 81.9989 6.02512 90.5072 6.02512 104.206C6.02512 113.253 9.79512 116.7 13.4351 120.017C16.3251 122.658 19.3251 125.388 19.3251 130.598C19.3251 141.398 21.7151 154.011 28.4651 154.011C29.0151 154.011 29.5051 153.921 29.9351 153.742V137.473C29.9351 130.548 35.5851 124.919 42.5351 124.919C49.4851 124.919 55.1351 130.548 55.1351 137.473V153.752H55.1051Z" fill="#01C2CA" stroke="#01C2CA" stroke-width="2"/>
</g>
<defs>
<clipPath id="clip0_723_7802">
<rect width="160" height="160" fill="white"/>
</clipPath>
</defs>
</svg>
