<svg width="160" height="160" viewBox="0 0 160 160" fill="none" xmlns="http://www.w3.org/2000/svg">
<g clip-path="url(#clip0_723_7520)">
<path d="M56.5464 148.008C49.8005 153.782 39.5623 153.535 33.071 147.47C28.819 143.495 26.9813 137.943 27.5819 132.619C22.4469 133.196 17.1091 131.508 13.1633 127.561C6.27822 120.672 6.27822 109.497 13.1673 102.605C18.4813 97.2878 26.3529 96.0701 32.8323 98.9672C35.5848 100.197 38.8185 99.4965 40.9465 97.3674L94.532 43.7585H94.5359L97.1253 41.1757C99.2811 39.0188 100.005 35.7476 98.7641 32.9579C95.7093 26.0732 97.2765 17.6405 103.454 12.3596C110.199 6.58518 120.438 6.83192 126.929 12.8968C131.181 16.8724 133.019 22.4239 132.418 27.7486C137.553 27.1716 142.891 28.8589 146.837 32.8067C153.722 39.6953 153.722 50.87 146.833 57.7626C141.519 63.0793 133.647 64.2971 127.168 61.4C124.415 60.1703 121.182 60.8707 119.054 62.9998L65.472 116.609H65.468L62.8747 119.199C60.7228 121.352 60.0029 124.624 61.2399 127.409C64.2947 134.294 62.7275 142.727 56.5504 148.008H56.5464Z" stroke="#4A4A4A" stroke-width="5" stroke-linecap="round" stroke-linejoin="round"/>
<path d="M29.9999 106.499C15.2833 102.499 12.9999 123.5 25.9997 123.5" stroke="#01C2CA" stroke-width="4" stroke-linecap="round"/>
<path d="M132 53.498C146.878 57.5603 149 38.9993 137 36.498" stroke="#01C2CA" stroke-width="4" stroke-linecap="round"/>
</g>
<defs>
<clipPath id="clip0_723_7520">
<rect width="160" height="160" fill="white"/>
</clipPath>
</defs>
</svg>
